<svg xmlns="http://www.w3.org/2000/svg" xmlns:xlink="http://www.w3.org/1999/xlink" version="1.1" x="0px" y="0px" viewBox="0 0 100 100" style="enable-background:new 0 0 100 100;" xml:space="preserve"><path d="M59.4,37.1C59.3,37,59.1,37,59,37.1c-0.2,0.2-0.4,0.4-0.6,0.2c-0.2-0.1-0.1-0.4,0-0.6c0.1-0.2,0.1-0.3,0-0.5  c-0.1-0.1-0.1-0.2-0.4-0.3c-0.1,1.7-1.7,2.5-2.2,4c-0.2,0.5-0.7,1,0,1.5c0.1,0.1,0.1,0.3-0.1,0.4c-0.5,0.4-0.8,0.1-1.3-0.1  c-0.4-0.2-0.8-0.5-0.6-0.9c0.3-0.9,0.6,0.2,0.9,0.1c0.1-0.4,0.2-0.8,0.4-1.2c-2.3,0.1-3.2,0.8-3.7,2.7c-0.3,1.1,0.5,2.8,1.6,3.2  c0.3,0.1,0.5,0.2,0.4,0.5c0,0.2-0.1,0.6-0.4,0.6c-0.8,0.1-0.7,0.5-0.6,1.1c0.2,1.1-0.5,2.1-0.5,3.3c0,0.2-0.3,0.4-0.5,0.4  c-0.1,0-0.3-0.2-0.3-0.4c0-0.3-0.1-0.8,0-1.1c0.7-1.5,0-3-0.4-4.4c-0.2-0.7-1.1-1.4-1.8-1.5c-1-0.2-1.6-1.3-2.8-1.1  c-0.2,0-0.4-0.2-0.3-0.5c0.2-0.3,0.3-0.7,0.9-0.5c1,0.3,1.9,1,2.9,1.3c0.2,0.1,0.4,0.2,0.7,0.3c0-1.3,0.1-2.4,0.9-3.4  c0.3-0.4,0.2-0.6-0.2-0.9c-0.8-0.5-1.5-1-2.2-1.5c-1.3-0.9-1.3-2.2-1.3-3.5c0-0.8-0.2-0.7-0.9-0.7c-1.4,0.1-1.2,1.1-1.3,2  c-0.4,2.9-0.8,5.8-1,8.8c-0.3,3.5-1,7-0.6,10.6c0.1,1-0.2,1.9,0,2.9c0.1,0.4-0.2,0.6-0.6,0.6c-0.4,0-0.5-0.2-0.5-0.5  c0-1.1,0.1-2.1-1-2.8c-0.5-0.4-0.7-1.3-1-2c-0.1-0.2,0-0.4-0.3-0.4c-0.2,0-0.3,0.2-0.3,0.3c0.1,1.8-0.2,3.5,0.1,5.3  c0.1,0.3,0.3,0.4,0.6,0.5c2.7,0.2,5.3,0.7,8,0.3c0.2,0,0.3,0.1,0.5,0.1c0.8,0.1,1.4,0.2,1.7-0.9c0.3-1,1.2-1.9,1.9-2.8  c2.2-2.5,4.4-4.9,6.7-7.3c1.8-1.9,3.8-3.6,5.5-5.5c2-2.3,4.3-4.3,6.4-6.6c2.4-2.5,5.1-4.8,7.7-7.2c1.5-1.5,3.2-2.7,5.2-3.5  c1.4-0.5,2.9-1.3,4.5-1.1c1.6,0.2,2.9,1.1,3.9,2.4c0.4,0.5,0.7,1.1,0.9,1.7c0.6,1.7,1.7,3.1,1.6,5c-0.1,3.3-1.2,6.2-2.8,9  c-0.8,1.4-1.6,2.8-2.4,4.2c-0.6,1-1.6,1.7-2.3,2.5c-0.9,1.1-1.4,2.5-2.5,3.6c-0.9,0.9-2,1.1-3,1.7c0.7-0.8,1.4-1.6,2-2.4  c1.5-2,3.2-3.8,4.6-5.8c1.4-2.1,2.6-4.3,3.8-6.6c1.2-2.4,1.9-4.9,1.3-7.4c-0.5-2.2-1.3-4.5-3.3-5.9c-1.4-0.9-3.5-1-4.9-0.1  c-0.6,0.4-0.8,1.8-0.1,2.4c1.7,1.6,1.1,3.3,0.5,5c-0.3,0.9-0.8,1.7-1.2,2.5c-0.2,0.4-0.5,0.7-0.9,0.6c-0.5-0.1-0.4-0.6-0.3-1  c0.1-0.9,0-1.8-0.2-2.8c-0.4-1.5-0.8-3-1.8-4.3c-0.2-0.2-0.4-0.3-0.6-0.1c-1,0.9-1.9,1.7-2.9,2.6c-0.3,0.2-0.1,0.5-0.1,0.8  c0.2,1.4,1.3,2.6,1.2,4.1c0,2.3-0.1,4.5-1.2,6.6c-0.4,0.7-0.7,1.5-0.9,2.3c-0.1,0.4-0.3,0.7-0.7,0.7c-0.5,0-0.5-0.5-0.4-0.8  c0.2-1.6-0.4-3.1-0.8-4.6c-0.3-0.9-0.2-1.9-0.7-2.8c-0.3-0.5-0.4-1.1-1.1-0.5c-0.1,0.1-0.3,0.2-0.4,0c-0.6-1.2-1-0.1-1.2,0.2  c-0.7,0.9-1.5,1.6-2.4,2.2c-0.8,0.5-0.5,1-0.1,1.5c1,1.4,1.6,3,1.8,4.6c0.2,1.8-0.1,3.7-0.4,5.5c-0.1,0.4-0.2,1-0.8,0.9  c-0.6-0.1-0.6-0.6-0.5-1c0.4-2-0.5-3.3-1.9-4.6c-0.7-0.6-1.3-1.3-2.1-1.9c-0.5-0.4-0.7-0.2-1,0.1c-0.7,0.8-1.4,1.5-2.2,2.2  C62,47.1,62,47.4,62.3,48c1.1,1.7,1.8,3.5,2.4,5.5c0.3,1-0.1,1.9-0.1,2.9c0,0.2-0.2,0.7-0.6,0.7c-0.4,0-0.6-0.5-0.6-0.7  c0.2-2-1.6-2.8-2.5-4.1c-0.5-0.8-1.6-0.8-2.5-1.1c-0.2-0.1-0.3,0.1-0.5,0.2c-2.1,2.3-4.3,4.4-6,7c-0.6,0.8-0.5,1,0.5,1.1  c1.2,0.1,2.3-0.2,3.5-0.2c3-0.1,6-0.6,8.9-1c3.6-0.6,7.3-0.9,10.8-1.7c3.6-0.8,7.2-1.6,10.7-2.8c2.7-0.9,5.2-2.4,7.3-4.5  c0.6-0.6,0.4-1.4,0.5-2.1c0-0.2-0.2-0.5-0.4-0.4c-1,0.6-1.4-0.5-2.1-0.8c-0.3-0.1-0.3-0.4-0.3-0.6c0.1-0.4,0.4-0.1,0.6,0  c0.5,0.2,0.8,0.3,1.1-0.3c0.1-0.2,0.6-0.3,1.1,0.1c1.7,1.5,2.4,3.4,2.5,5.6c0,0.9-0.3,1.9-0.9,2.4c-2,1.5-1.9,3.7-2.2,5.8  c-0.1,0.8-0.1,1.6-0.3,2.5c-0.6,1.9-0.4,3.8-1.1,5.7c-0.1,0.3-0.1,0.6,0.2,0.9c0.1,0.1,0.1,0.4,0.1,0.5c-1,0.8-0.8,2.1-1.1,3.1  c-0.3,0.8-0.6,1.5-0.9,2.3c-0.7,2.4-1.4,4.7-1.6,7.2c-0.2,2.3-1.3,3.9-3.5,4.7c-1.5,0.6-3.2,0.9-4.5,2c-1,0.8-2.2,1.2-3.3,1.9  c-0.1,0-0.1,0.1-0.2,0.1c-2.5-0.2-4.9,0.6-7.3,0.9c-1.6,0.2-3.3,0.4-5,0.7c-2.2,0.4-4.5,0.5-6.7,0.7c-1.5,0.1-2.9,0.3-4.4,0.1  c-0.5-0.1-1.3-0.1-1.5,0.8c-0.1,0.4-0.6,0.4-0.8,0.1c-0.6-1.2-1.7-0.8-2.6-0.8c-0.5,0-1.2,0-1.7,0.4c-0.3,0.2-0.7,0.1-1.1-0.1  c-2.3-0.9-4.7-1-7.1-1.3c-0.8-0.1-1.7,0.7-2.3-0.6c0-0.1-0.2-0.1-0.3-0.1c-1.2,0.5-1.9-0.2-2.8-0.8c-1.2-0.8-2.6-0.8-3.9-1.4  c-0.5-0.2-1-0.4-1.5,0.1c-0.1,0.2-0.3,0-0.5,0c-2.2-1.1-4.7-1.3-6.8-2.6c-1.1-0.7-2-1.7-3.3-2.1c-0.2-0.1-0.4-0.3-0.6-0.4  c-0.6-0.1-0.8-0.2-0.7-0.9c0.2-0.6-0.4-1.1-0.8-1.6c0,0.1-0.1,0.1-0.1,0.1c-0.1,0.5,0,1.4-0.6,1.4c-0.8,0-0.5-0.9-0.5-1.4  c0-2.8-1-5.4-1.7-8c-0.9-3.4-1.7-6.9-2.4-10.4c-0.5-2.7-1.1-5.3-1.7-8c-0.1-0.6-0.3-1.4,0.1-1.9c0.6-0.7,0.2-1.1-0.2-1.8  c-1.2-2-1.3-4.2-0.4-6.3c0.3-0.8,1.2-1,2-1.2c0.8-0.2,0.9-0.6,0.7-1.2c-0.8-2.7-1.6-5.4-2.4-8.1c-0.9-2.9-1.7-5.9-2.6-8.8  c-1-3.2-1.8-6.4-2.5-9.6c-0.4-2,0.1-3.7,1.3-5.4C6.4,8.9,8,8.3,10,8c1.4-0.2,2.5,0.5,3.4,1.3c3.5,3,5.6,7,7,11.3  c0.6,2,0.8,4.2,1.4,6.2c1.1,3.3,1.5,6.7,2.9,9.9c0-1,0.7-1.8,0-2.9c-0.6-1-0.7-2.2-0.8-3.4c-0.2-2.9-0.8-5.9-0.7-8.8  c0.1-3.2,0-6.5,1.2-9.6c1.6-4.4,3.7-5,7.7-5.1c2.4,0,4.3,1.6,6.1,3.2c2,1.8,3,4.1,4.1,6.4c0.4,0.8,0.9,1.6,1.1,2.8  c0.9-1.8,1.3-3.4,2.1-4.9c1.4-2.8,5.3-5,8.3-3.9c1.2,0.4,2.2,1.1,3.3,1.7c0.7,0.4,0.7,1.1,1,1.7c1.5,2.7,2.8,5.4,3.8,8.2  c0.7,2,0.4,4,0.5,6c0,0.6,0.1,1.1,0.3,1.7c1-2,2.2-3.9,3-5.9c0.6-1.7,1.6-3.2,2.5-4.9c0.6-1.1,1-2.3,1.7-3.3  c1.5-2.4,3.1-4.7,5.6-6.3c1.3-0.8,4.1-0.3,4.9,0.8c0.6,0.8,1,1.6,0.9,2.6c-0.2,1.4,0.2,2.7-0.2,4.1c-0.5,2.4-0.6,5-1.8,7.2  c-1.1,2-1.9,4.1-3,6.1c-0.1,0.2-0.2,0.3-0.3,0.5c-0.1,0.5-0.4,1.1-0.9,0.9c-0.5-0.2-0.2-0.9,0-1.3c1.1-2.4,2.3-4.7,3.3-7.1  c1.1-2.7,1.6-5.5,1.6-8.4c0-1.1,0.5-2.3-0.3-3.5c-0.4-0.6-0.8-0.8-1.4-1c-2.2-0.4-3.6,0.7-4.9,2.2c-2.6,3.1-4.6,6.6-6.2,10.3  c-2,4.5-4.6,8.8-6.4,13.4c-1,2.5-2.6,4.7-3.5,7.2c-0.7,2.1-1.8,4-2.8,6c-1.3,2.5-2.5,5.1-3.8,7.6c-0.1,0.2-0.3,0.5-0.5,0.7  c-0.2,0.1-0.5,0.3-0.8,0c-0.3-0.3-0.1-0.5,0-0.8c1.8-3.4,3.7-6.9,5.4-10.3c1.1-2.3,2.1-4.6,3.2-6.9C58.4,38.9,59,38,59.4,37.1  c0.2-0.9,0.5-1.6,0.9-2.4c0.2-0.3,0.4-0.6,0.2-1.1c-0.7-1.8-1-3.7-0.8-5.6c0.3-2.2-0.5-4-1.4-5.8c-1.2-2.2-2.8-4.1-4.9-5.6  c-2.3-1.7-3.7-1.4-5,0.9c-0.7,1.3-0.8,2.9-1.4,4.2c-0.1,0.3,0,0.5,0.3,0.6c1.4,0.8,1.9,2.3,2.4,3.7c0.2,0.6,0,1.5,0.3,1.9  c0.4,0.4,1.1-0.2,1.7-0.2c0.2,0,0.5,0.1,0.7,0.1c2.1,0,5.3,2.4,5.4,4.6C58,34.1,59.2,35.4,59.4,37.1z M4.9,15.2c0,2,0.8,4.2,1.3,6.4  c0.9,3.7,2.1,7.3,3.2,11c1.4,4.7,2.8,9.3,4.1,14c0.4,1.6,0.9,3,2.7,3.3c0.2,0,0.4,0.2,0.6,0.3c0.7,0.7,1.6,1.1,2.5,1.5  c0.9,0.4,1.9,0.7,2.8,1.4c1.8,1.5,3.8,2.5,6.1,3.1c0.3,0.1,0.5,0.1,0.7-0.1c0.2-0.1,0.2-0.3,0.1-0.6c-0.6-1.4-0.8-2.9-1.2-4.4  c-1.5-4.6-2.8-9.2-4.1-13.8c-0.8-3.1-1.6-6.2-2.6-9.3c-0.9-2.9-1.3-5.9-2.4-8.7c-1.3-3.2-2.9-6.2-5.5-8.7c-1.5-1.5-3.1-2-5.1-1.1  C6.3,10.5,4.7,12.9,4.9,15.2z M70.6,69.2c-0.2,0.5-0.5,0.5-0.8,0.6c-1.4,0.3-2.7,0.6-4.1,0.7c-1.6,0.2-2.2,0.6-2.2,1.8  c0,0.7,0,1.5,0.1,2.2c0.1,1.7,0.3,3.5,0.4,5.2c0.1,1.3-0.1,2.6,0.1,3.8c0.3,2,0.4,4,0.3,6c0,0.7,0.2,0.9,0.9,0.8  c2.9-0.2,5.8-0.8,8.7-1.3c1.6-0.3,1.7-0.7,1.2-2.2c-0.3-0.8-0.4-1.7-0.3-2.5c0.5-4.9-0.4-9.8-0.5-14.8c0-0.3-0.1-0.5-0.4-0.5  c-0.2,0-0.6,0.4-0.7-0.2c-0.1-0.5,0.3-0.5,0.6-0.6c0.8-0.4,0.3-1.2,0.3-1.7c0-0.4,0.1-1-0.6-1.1c-0.8-0.1-0.6-0.7-0.2-1  c0.5-0.3,0.5-0.7,0.4-1.2c-0.1-0.4,0-0.8,0.2-1.2c0.1-0.3,0.4-0.6,0.8-0.4c0.4,0.1,0.2,0.4,0.2,0.7c-0.2,1.2,0.1,1.6,1.4,1.4  c1-0.2,2-0.1,3-0.4c0.2-0.1,0.5-0.2,0.6,0.2c0,0.2-0.2,0.4-0.4,0.4c-0.8,0.2-1.6,0.4-2.5,0.7c-2,0.5-2,0.5-1.9,2.6  c0,0.6,0.2,0.8,0.7,0.7c2.1-0.5,4.2-0.9,6.3-1.2c0.5-0.1,0.8-0.3,0.7-0.9c-0.1-2-0.2-3.9-0.3-5.9c0-0.6-0.3-0.8-0.8-0.6  c-0.6,0.2-1.3,0.5-1.9,0.6c-2.4,0.4-4.6,1.4-7,1.6c-0.9,0.1-1.5,0.4-1,1.4c0.1,0.1,0,0.4,0.1,0.5c0.4,0.7-0.6,1.8,0.7,2.3  c0.1,0,0,0.2-0.2,0.3c-0.3,0.1-0.3,0.3-0.3,0.6c0.1,1,0.1,2,0.2,3c0.2,1.9,0.8,3.8,0.5,5.7c-0.1,0.7-0.4,1.8,1.1,1.7  c0.2,0,0.5,0,0.5,0.3c0,0.3-0.3,0.3-0.5,0.3c-0.5,0.1-1,0.1-0.9,0.9c0.4,2.7-0.4,5.5,0.7,8.1c0.2,0.4,0.1,0.9-0.4,1  c-0.6,0.1-0.7-0.3-0.7-0.7c-0.1-0.7-0.3-0.7-1-0.7c-1.6,0.1-3.1,0.7-4.6,1c-0.3,0.1-0.8,0.5-1-0.1c-0.2-0.6,0.4-0.7,0.8-0.9  c1.5-0.4,3-0.9,4.6-0.7c0.5,0,0.7,0,0.8-0.6c0.1-1.9,0.1-3.8,0-5.7c-0.1-1.4-0.3-1.5-1.7-1.1c0,0-0.1,0.1-0.1,0.1  c-1.5,0.2-2.9,0.9-4.4,1.4c-0.3,0.1-0.9,0.3-1.1-0.2c-0.2-0.6,0.4-0.6,0.7-0.7c1.7-0.4,3.5-0.8,5.3-1.3c0.4-0.1,1-0.1,1.1-0.6  c0.2-0.8,0.2-1.6,0.1-2.4c0-0.3-0.1-0.4-0.5-0.4c-1.8,0.2-3.6,0.3-5.4,0.9c-0.5,0.2-1.1,0.4-1.6,0.3c-0.2-0.1-0.6,0-0.6-0.3  c-0.1-0.4,0.3-0.4,0.6-0.5c2.4-0.7,4.9-1,7.5-0.9c0-0.3,0-0.7-0.1-1c-0.3-1.8-0.6-3.6-0.7-5.4c-0.1-1.1-0.1-2.2-0.3-3.4  c-0.1-0.6-0.1-1.4-0.5-1.8c-0.3-0.4-0.9,0.2-1.4,0.2c-0.1,0-0.3,0-0.4,0c-1.6,0.1-3.1,0.2-4.7,0.2c-0.4,0-0.9,0-0.8,0.5  c0.1,1.1-0.3,2.1-0.3,3.2c0.4-0.2,6.7,0,7.1,0.1c-0.1,0.2-0.4,0.2-0.6,0.2c-2,0-3.9,0.3-5.9,0.2c-0.3,0-0.5-0.2-0.6,0.3  c-0.3,2.7,0.5,3.4,3.1,2.8c0.1,0,0.2-0.1,0.3-0.1C67.9,69.6,69.2,69.4,70.6,69.2z M32.6,79.2c-0.5,0.2-0.8,0.3-1.1,0.2  c-1.6-0.1-3.2-0.2-4.9-0.2c-0.7,0-1,0.1-0.9,0.9c0.2,1.6,0.4,3.1,0.6,4.7c0.1,0.5,0.1,0.9-0.2,1.3c-0.1,0.1-0.3,0.1-0.4,0  c-0.4-0.3-0.5-0.8-0.5-1.2c0-0.1,0.1-0.2,0-0.3c-0.2-1,0-1.9-0.2-2.9c-0.3-1.2-0.5-2.5-0.4-3.6c0-1.5,0.1-3.1,0.1-4.6  c-0.1-2.6-0.7-5.2-0.8-7.8c0-1.6-0.2-3.3,0.3-4.9c0.3-0.9,0.1-1.1-0.7-1.1c-0.1,0-0.3-0.1-0.4-0.1c-2.1-1.1-4.4-1.8-6.6-2.8  c-0.2-0.1-0.5-0.2-0.7,0.1c-0.3,0.4-0.3,2.9,0,3.3c1.1,1.8,2.8,2.3,4.7,2.5c0.6,0.1,0.7-0.1,0.6-0.7c-0.1-0.5-0.2-1,0-1.5  c0.1-0.3,0.2-0.6,0.5-0.6c0.3,0,0.5,0.4,0.4,0.7c-0.1,1.5,0.3,3,0.4,4.5c0.2,2.7,0.5,5.3,0.7,8c0,0.4,0.8,0.5,0.3,1  c-0.4,0.5-0.2,1-0.1,1.5c0.2,1.1,0.5,2.2,0.5,3.3c0,1.3,0.1,2.6,0.5,3.8c0.1,0.4,0.1,0.8,0.1,1.2c0,0.2-0.1,0.4-0.4,0.5  c-0.3,0.1-0.6-0.1-0.6-0.3c-0.1-1.5-1.2-1.3-2.2-1.4c-0.6-0.1-1.2-0.2-1.8-0.2c-0.5,0-0.9-0.3-1.3-0.5c-0.3-0.2-0.4-0.4-0.3-0.7  c0.2-0.3,0.5-0.5,0.8-0.3c0.9,0.7,2.1,0.7,3.2,0.9c1.3,0.2,1.2,0.3,1.1-1.1c0-0.5,0.1-1.1-0.1-1.6c-0.3-0.7-1-0.1-1.5-0.3  c-1.1-0.4-2.2-0.5-3.3-0.8c-0.4-0.1-0.7-0.2-1,0.1c-0.3,0.2-0.2,0.6,0,0.8c0.4,0.6,0.4,1.1,0,1.6c-0.2,0.2-0.1,0.4,0,0.6  c0.5,1,1.5,1.8,2.3,2.3c1,0.6,1.9,1.5,3,2.1c1.8,1,3.6,1.7,5.8,1.2c1.6-0.3,3.1,0.1,4.7,0.4c0.2,0,0.5,0.2,0.4,0.4  c0,0.3-0.3,0.2-0.5,0.2c-0.5,0-0.9,0-1.4,0.1c1.1,0.2,2,1.1,3.4,1c-0.4-0.8-0.4-1.5-0.4-2.2c-0.1-3.6-0.4-7.3-0.6-10.9  c0-0.9-0.6-1.1-1.2-1c-0.8,0.3-1.7,0.3-2.4,0.2c-1.2-0.1-2.4,0.1-3.5-0.7c-0.2-0.2-0.4-0.4-0.2-0.6c0.2-0.2,0.3-0.4,0.6-0.2  c1.5,0.8,3.1,0.9,4.8,0.9c1.8,0,2-0.2,1.7-1.9C33,69.3,33,65.8,33,62.5c0-0.9-0.4-1.2-1-1.2c-2.1,0-4.1-1-6.2-0.9  c-0.3,0-0.8-0.3-0.7,0.3c0.1,0.7-0.2,1.3-0.3,1.9c0,0.5,0,0.9,0.5,1.1c1.1,0.7,2.4,0.9,3.5,1.4c0.7,0.3,1.6,0.4,2.2,1  c-0.2,0.2-0.4,0.2-0.6,0.2c-1.6-0.3-3.1-0.8-4.6-1.4c-1-0.4-1.1-0.3-1,0.7c0,0.6,0.1,1.1,0.1,1.7c0,0.6,0.2,0.8,0.8,0.8  c1.1,0,2.2,0.3,3.2,0.6c0.3,0.1,0.7,0.3,0.6,0.6c-0.1,0.4-0.5,0.2-0.8,0.1c-1-0.3-2-0.4-3.1-0.3c-0.6,0-0.7,0.3-0.6,0.8  c0.5,2.3,0.6,4.6,0.5,7c0,1,0.3,1.4,1.2,1.5c0.8,0.1,1.7,0.1,2.5,0.3C30.3,78.9,31.4,78.7,32.6,79.2z M48.2,78.4  c-0.2-1.6,0-3.3-0.4-4.9c-0.1-0.6,0-1.4-0.4-1.7c-0.3-0.3-1.2-0.1-1.7-0.2c-2.8-0.5-5.6-0.6-8.4-0.4c-0.6,0-0.9,0.1-0.9,0.8  c0,1.9,0.1,3.8,0.4,5.6c0.2,1.8,0.2,1.8,2,1.6c0.3,0,0.6,0,0.9,0c2.2,0.2,4.5,0.4,6.7,0.6c0.2,0,0.4,0.1,0.4,0.3  c0,0.2-0.2,0.3-0.4,0.3c-0.5,0-1,0-1.5,0c-2.4-0.1-4.8-0.5-7.2,0.1c-0.6,0.2-0.8,0.3-0.7,0.9c0.1,0.8,0.1,1.6,0.3,2.3  c0.4,0.9,0.4,1.9,0.3,2.8c-0.1,0.7-0.1,1.4,0,2c0.1,0.9,0.5,1.6,1.6,1.8c2.4,0.4,4.9,0.5,7.3,0.7c1.4,0.1,2.8,0.3,4.2,0.4  c0.3,0,0.8,0.3,0.8-0.4c-0.1-2.4-0.1-4.8-0.2-7.2c-0.1-2.3-0.5-4.6-0.5-7c0-1.8,0.4-3.8-1.1-5.4c0,0,0-0.2,0.1-0.3  c0.8-0.5,0.4-1.3,0.4-1.9c0-1.6-0.3-3.1,0-4.7c0.2-1.1,0-1.4-1.2-1.2c-0.4,0.1-0.9-0.1-0.8,0.7c0.1,0.6,0.1,1.2,0.2,1.8  c0.1,0.4,0,0.9,0.7,0.7c0.3-0.1,0.6,0.2,0.5,0.5c0,0.3-0.3,0.4-0.6,0.3c-0.3-0.1-0.7-0.2-0.6,0.3c0.2,1.1-0.1,2.2,0,3.2  c0.5,3.4,0.7,6.9,1,10.3c0.2,2-0.3,3.9,0.3,5.9c0.3,0.9-0.2,1.9,0.2,2.8c0.2,0.5-0.1,1-0.6,1.1c-0.7,0.1-0.5-0.6-0.5-1  c-0.1-1.5,0-2.9-0.2-4.4C48.2,83.1,48.6,80.8,48.2,78.4z M25.6,34.5c0.4-1.4,1.3-1.8,2.3-2.1c0.4-0.1,0.3-0.3,0.2-0.7  c-1.1-2.6-0.3-5.1,0.9-7.5c0.4-0.8,1.3-1.5,2.1-2.1c0.9-0.7,1.8-1.6,3-1.2c0.9,0.2,1.8,0.1,2.7,0.1c0.7,0,1.5-0.1,2.2,0.3  c0.5,0.3,1.1,0.4,1.6-0.2c0.4-0.4,1-0.5,1.6-0.6c0.3-0.1,0.6,0.2,0.7,0.4c0,0.2-0.1,0.4-0.4,0.5c-1.7,0.5-2.9,1.7-4,3  c-0.6,0.7-0.8,1.4-0.1,2.2c0.3,0.3,0.4,0.8,0.4,1.2c0,0.9,0.1,1.7,0.1,2.6c0,0.9,0.7,1.3,1.2,1.8c0.5,0.4,1.1-0.1,1.3-0.7  c0.2-0.8,0-1.5,0.1-2.3c0.4-2.6,1-5.1,1.6-7.7c0.1-0.4,0.4-0.9,0.1-1.3c-1.2-1.7-1.9-3.6-2.9-5.3c-1.4-2.5-3-4.6-5.5-6  c-1.5-0.8-3.1-1.2-4.8-0.6c-0.3,0.1-0.7,0.2-1,0.2c-1.1,0-1.8,0.7-2.3,1.5c-1.4,2.1-2.1,4.6-2.2,7.1c-0.2,3.3-0.3,6.6,0.2,9.9  C24.8,29.4,25.1,31.8,25.6,34.5z M52.5,81.2c0.4-0.5,0.8-0.7,1.3-0.7c1.9,0,3.9-0.3,5.8-0.3c0.8,0,0.9-0.4,0.9-0.9c0-1,0-2,0-3  c-0.2-2.9-0.7-5.8-0.7-8.7c0-0.7-0.3-1-1-0.9c-1.1,0.2-2.2,0.4-3.3,0.2c-1.1-0.3-2.2-0.1-3.2,0c-1.3,0.1-1.4,0.4-1.5,1.7  c0,0.3,0.1,0.5,0.1,0.7c-0.2,0.9,0.3,1.1,1,1.1c1.8,0.1,3.6,0.2,5.4,0.3c0.2,0,0.6-0.1,0.6,0.3c0,0.3-0.3,0.2-0.5,0.2  c-1.6,0-3.1,0-4.7-0.1c-1.2,0-1.5,0.2-1.4,1.3c0,0.9,0.2,1.8,0.2,2.6c0,0.6,0.3,0.7,0.8,0.7c1.3-0.1,2.5-0.2,3.8-0.2  c1,0,2-0.1,3,0.3c-0.3,0.1-0.6,0.2-0.9,0.2c-1.8,0.2-3.6,0.3-5.4,0.5c-0.6,0.1-1.3,0.1-1.3,1c0,0.7-0.4,1.7,1,1.7  c0.2,0,0.4,0.1,0.4,0.3c0,0.2-0.2,0.2-0.4,0.3c-0.4,0.1-0.9,0.1-0.7,0.8c0.4,2.1,0.3,4.3,0.4,6.4c0.1,0.9,0.5,1.1,1.2,1  c1.8-0.2,3.7-0.2,5.6-0.2c0.4,0,0.8-0.1,1.1,0.3c-0.4,0.4-0.9,0.4-1.4,0.3c-1.9,0-3.7,0.1-5.6,0.3c-0.7,0.1-0.9,0.5-0.7,1  c0.2,0.5-0.2,1.5,0.9,1.5c2.2-0.1,4.3-0.2,6.5-0.4c0.8-0.1,1.4-0.4,1.2-1.4c-0.3-1.6-0.3-3.2-0.2-4.9c0.1-0.9,0.2-1.8,0.1-2.7  c-0.1-0.9-0.5-1.3-1.5-1.1c-1.7,0.3-3.4,0.4-5.1,0.5C53.7,81.5,53.1,81.7,52.5,81.2z M89.5,74.1c0.8-1.5,1.1-2.8,1.3-4.1  c0.1-0.8-0.2-1-1-0.7c-0.6,0.3-1.1,0.5-1.6,0.9c-0.3,0.2-0.7,0.2-0.9,0c-0.2-0.4,0.1-0.6,0.4-0.8c0.8-0.5,1.7-1,2.6-1.1  c0.5-0.1,0.8-0.3,0.9-0.9c0.8-3.7,1.3-7.5,1.7-11.3c0.1-0.5-0.1-0.7-0.7-0.4c-0.8,0.4-1.5,1-2.4,1.3c-1.3,0.5-2.7,0.9-4.1,1.3  c-0.5,0.1-0.7,0.4-0.7,1c0,0.4,0.1,0.8,0.1,1.2c0,0.5,0,0.7,0.7,0.5c1.7-0.5,3.4-0.8,5.1-1.2c0.2-0.1,0.5-0.2,0.6,0.1  c0.1,0.3-0.2,0.4-0.3,0.4c-1.7,0.3-3.1,1.3-4.8,1.6c-0.8,0.1-1.3,0.5-1.3,1.6c-0.1,3.2-0.1,6.3,0.3,9.4c0.2,1.5,0.2,1.5,1.4,0.9  c0.4-0.2,0.8-0.3,1.2-0.5C88.9,72.8,89.3,72.9,89.5,74.1z M46.1,67.2c0.5-0.4,1.1-0.2,1.1-0.7c-0.1-1-0.3-2-0.1-3  c0-0.2-0.3-0.2-0.5-0.3c-0.8-0.3-1.7,0-2.6-0.1c-2.3-0.4-4.7,0-7-0.8c-0.4-0.1-0.8-0.1-0.7,0.6c0.1,0.7,0.1,1.4,0.1,2.2  c0,0.5,0.1,0.9,0.7,1.1c1.2,0.5,2.4,0.4,3.5,0.6c0.9,0.1,1.9,0,2.9,0.6c-1.6,0.4-3,0-4.4,0.1c-0.9,0-2.1-0.9-2.7-0.2  c-0.4,0.6,0,1.9,0,2.8c0,0.1,0,0.1,0.1,0.2c1-0.3,2-0.1,3,0c1.8,0.2,3.5,0.8,5.3,0.7c2.4,0,2.8,0.7,2.6-2.4  C47.4,67.8,47.4,67.1,46.1,67.2z M35.7,39.4c-0.2-2.5-0.8-4-2.3-5.2c-0.9-0.7-1.9-0.4-2.8-0.8c-2.3-1-4.6,0.8-4.8,3.2  c-0.2,1.7,0.2,3.3,1,4.8c0.4,0.7,1,1.1,1.5,1.7c0.8,1,1.4,0.1,2,0c0.7,0,1.4-0.4,2.2-0.2c0.4,0.1,1,0.1,1.4-0.3  C34.9,41.5,35.9,40.4,35.7,39.4z M36.8,28c-0.3-2.4-0.3-2.5-1.4-3.4c-2.4-2.1-4.9-1.7-6.3,1.2c-0.6,1.4-0.8,3-0.5,4.5  c0.2,0.9,0.4,2,1.9,2.1c1.3,0.1,2.7,0.2,3.7,1.4c0.1,0.2,0.5,0.3,0.8-0.1c0.3-0.3,0.7-0.5,1-0.9c0.6-0.8,1.6-1.4,1.2-2.5  C37,29.5,36.7,28.7,36.8,28z M51.7,38.5c0.2-0.8,0.4-1.5,0.6-2.1c0.2-0.7,0.5-1.4-0.6-1.7c-0.3-0.1-0.5-0.4-0.3-0.7  c0.1-0.3,0.5-0.4,0.8-0.1c0.5,0.5,0.7,0.1,0.8-0.4c0.1-0.4,0.1-0.8,0.2-1.2c0.1-0.3,0.2-0.8,0.7-0.7c0.6,0.2,0.1,0.6,0,0.8  c-0.2,0.7-0.5,1.3-0.5,1.9c0,0.6,0.8,0.4,1.2,0.6c0.2,0.1,0.3,0.3,0.3,0.4c-0.1,0.2-0.3,0.2-0.5,0.1c-1.1-0.6-1.5-0.1-1.7,1  c0,0.4-0.2,0.7-0.3,1c-0.2,0.8-0.7,1.4,0.9,1.2c1.9-0.3,3.5-1.5,3.7-3.4c0.1-0.8,0.1-1.5-0.1-2.3c-0.3-1.3-0.9-2.3-1.8-3.3  c-1.9-1.9-5-1.3-5.7,1.1c-0.1,0.4-0.8,0.7-0.5,1.1c0.5,0.6,0.1,0.9,0,1.3c-0.2,0.5-0.3,1-0.3,1.6C48.6,37,50.2,37.7,51.7,38.5z   M30.1,52.9c0.2,1,0.2,1.9,0.5,2.6c0.2,0.6,0.5,1.4,1.2,1.7c1,0.4,2.2,0.5,3.3,0.8c0.6,0.1,0.6-0.2,0.5-0.6  c-0.2-0.8-0.5-1.6-0.6-2.4c-1-4.3,0-6.5,3.1-9.1c0.3-0.3,0.7-0.5,1.1-0.3c0.4,0.3,0.5,0.2,0.6-0.2c0.1-0.5,0.1-0.9,0.1-1.4  c0-0.4-0.1-0.8-0.5-0.6c-1.2,0.5-2.5,0.5-3.6,1.4c-1.5,1.2-2.6,2.6-3.9,4C30.6,50.2,30.8,51.8,30.1,52.9z M20.8,67.9  c-0.2,0.3-0.4,0.2-0.6,0.2c-1.2,0-2.2-0.5-3.2-0.9c-1-0.4-1.2-0.3-1.1,0.7c0,1,0.2,2,0.3,3c0.1,0.6,0.3,0.9,0.9,1  c1.5,0.5,3.1,0.5,4.6,1.2c0.7,0.3,0.8,0,0.8-0.6c0-2.4-0.5-4.8-0.6-7.1c0-0.5-0.3-1-0.3-1.6c0-0.5-0.3-0.5-0.6-0.5  c-1.2-0.2-2.4-0.1-3.5-0.6c-0.6-0.3-1-0.9-1.8-1c0,0.6,0.1,1.2,0.1,1.9c0.1,1-0.5,2.3,1.3,2.4c0.2,0,0.3,0.2,0.4,0.3  c0.6,0.6,1.5,0.9,2.3,1.1C20,67.5,20.5,67.5,20.8,67.9z M84.1,59c-0.1,0-0.2,0-0.3,0c-0.1,0.4-0.2,0.8-0.2,1.1  c0.1,2.9,0.4,5.8,0.4,8.7c-0.1,2.5,0.6,4.9,0.3,7.4C84,78.1,84,80,84.5,81.9c0.2,0.8-0.2,1.1-1.1,0.9c-0.2-0.1-0.3,0.1-0.5,0.2  c-1.9,0.6-3.7,1.4-5.5,2.2c-1.5,0.7-1.5,0.6-1.1,2.2c0.1,0.6,0.3,0.6,0.8,0.4c1.8-0.7,3.7-1.5,5.5-2.1c1.3-0.5,2.6-0.9,3.6-1.8  c1.6-1.5,1.6-3.7,1.7-5.8c0-0.1,0-0.3-0.2-0.3c-0.5-0.2-2,0.6-2.2,1.1c-0.1,0.4,0,0.7-0.1,1.1c0,0.4-0.1,1-0.6,1  c-0.6,0-0.5-0.6-0.4-1c0-0.1,0.1-0.3,0.1-0.4c0.2-2.4,0.5-4.7,0.1-7.1c-0.4-2.6-0.3-5.3-0.4-8C84.4,62.7,84.7,60.8,84.1,59z   M62.3,67.6c0.1-1.7-0.1-2.8,0-3.9c0-0.3,0.1-0.9-0.6-0.9c-0.6,0-0.9,0.3-0.9,0.9c0,1.5-0.1,3,0,4.5c0.1,2.1,0.2,4.2,0.5,6.3  c0.4,2.1-0.1,4.3,0.3,6.5c0.5,2.9-0.1,5.9,0.5,8.8c0.1,0.4-0.2,1,0.7,0.9c0.6-0.1,0.9-0.3,0.9-0.9c0-3.4-0.5-6.8-0.4-10.2  c0.1-1.9-0.5-3.8-0.4-5.8c0.1-1,0.5-2.1-0.5-2.9c-0.1,0-0.1-0.2,0-0.3C62.8,69.4,62.2,68.3,62.3,67.6z M34.6,44.2  c1.6-0.8,3-1.8,4.8-1.8c0.5,0,0.7-0.3,0.7-0.8c0-0.8,0.1-1.6,0.2-2.3c0.3-1.8,0.5-3.6,0.5-5.4c0-0.3,0-0.6-0.3-0.6  c-0.9,0-1.5-0.6-2.1-1.1c-0.2-0.1-0.3-0.4-0.6-0.1c-0.7,0.9-1.5,1.8-2.3,2.6c0.8-0.1,1.5-0.7,2.3-0.8c0.8-0.1,1.5-0.5,2.4,0  c-1.3,0.5-2.6,0.5-3.7,1.4c1.1,0.1,2.1-0.4,3.3-0.4c-0.9,0.9-1.9,1-2.8,1.4c-0.6,0.3-0.6,0.5-0.5,1.1c0.2,1.7,0.3,3.5-1.2,4.8  C34.8,42.8,34.5,43.4,34.6,44.2z M83.2,68.8C83.2,68.8,83.2,68.8,83.2,68.8c0-0.6,0.1-1.3-0.2-1.7c-0.4-0.4-1,0.2-1.5,0.3  c-1.9,0.3-3.8,0.7-5.7,1.4c-0.4,0.1-0.6,0.3-0.6,0.6c0,0.7,0,1.4,0.1,2.1c0,0.4,0.2,0.6,0.8,0.5c1.8-0.4,3.6-0.7,5.4-1.1  c1.7-0.3,1.7-0.3,1.6-2.1C83.2,68.9,83.2,68.8,83.2,68.8z M13.6,71.4c0.5-0.7,0.4-1.2,0.2-1.7c-0.4-1.6-0.7-3.2-0.7-4.9  c0-2.8-0.4-5.6-0.5-8.4c0-0.6-0.1-1.1,0.3-1.5c0.2-0.2,0.5-0.4,0.1-0.6c-1-0.5-1.8-1.2-2.9-1.7C10.6,59.1,12.3,65.1,13.6,71.4z   M53.4,63.1c-2.3,0.1-2.3,0.1-2.4,1.9c0,1.1,0.2,1.2,1.3,1.2c1.8,0.1,3.6-0.5,5.5-0.2c1.7,0.2,1.7,0.1,1.8-1.6  c0-0.3,0.1-0.6,0.1-0.8c0-0.4-0.1-0.7-0.6-0.6C57,63.3,54.9,63.5,53.4,63.1z M16.9,76.7c2.1,0.3,4,1.3,6,1.8c0-1.4-0.2-2.8-0.4-4.2  c-0.1-0.3-0.2-0.4-0.5-0.5c-1.5-0.3-3-0.7-4.5-0.8c-0.7,0-1.2,0.2-1.1,1.1C16.4,75.1,17,75.9,16.9,76.7z M76.2,84.7  c1.8-0.8,3.6-1.5,5.4-2.1c0.6-0.2,1.5,0.3,1.8-0.4c0.2-0.6-0.1-1.3-0.2-2c0-0.1-0.1-0.3,0-0.4c0.1-0.6-0.3-0.6-0.7-0.6  c-1.2,0.2-2.4,0.5-3.5,0.9c-3,1.3-3.1,1.4-2.9,4.2C76.1,84.5,76.1,84.6,76.2,84.7z M75.6,74.3c0,0.2-0.1,0.4-0.1,0.5  c0.2,0.7,0.1,1.5,1.4,1.1c1.9-0.6,3.9-0.9,5.9-1.2c0.5-0.1,0.5-0.4,0.5-0.7c0-0.7-0.1-1.4-0.1-2.1c0-0.2-0.1-0.5-0.5-0.4  c-2.1,0.5-4.2,0.8-6.2,1.5C75.8,73.2,75.2,73.4,75.6,74.3z M76.1,80.3c2.2-0.9,4.4-1.5,6.7-1.7c0.3,0,0.5-0.2,0.5-0.4  c0.1-0.5,0.1-1,0.2-1.5c0.1-1.6-0.1-1.8-1.6-1.3c-1.8,0.5-3.7,1.2-5.5,1.7c-0.5,0.2-0.6,0.6-0.5,0.9C76,78.8,75.9,79.6,76.1,80.3z   M29.2,52.6c0.2-0.9,0.3-1.6,0.5-2.3c0.6-1.9,1.9-3.3,3.3-4.7c0.4-0.4,0.4-0.5,0.1-1c-0.5-1.1-1.4-0.8-2.1-0.6  c-2.2,0.4-3.1,1.1-3.1,3.1C28,48.9,28.3,50.7,29.2,52.6z M95,49.1c-0.1,0.9-0.6,1.4-1.2,1.9c-0.4,0.3-0.7,0.6-0.8,1.1  c-0.1,0.6-0.3,0.7-1,0.6c-0.7-0.1-1.6,0.1-1.6,0.9c0,0.9-0.5,1.3-1.1,1.7c-0.3,0.2-0.6,0.5-1,0.3c-0.5-0.3-0.2-0.7-0.1-1.4  c-1.3,1.1-2.7,1.4-3.6,2.6c-0.4,0.5-0.8,1.1-1.1-0.1c-0.1-0.3-0.3-0.5-0.5-0.3c-0.7,0.7-1.8,1-2.3,2.2c1.1-0.3,2.1-0.6,3.1-0.8  c3.9-0.9,7.6-2.3,10.6-5C95.6,51.5,95.8,50.6,95,49.1z M45.8,31.6c0.2,0.3-0.2,0.9,0.3,1.1c0.5,0.2,0.8-0.3,1.2-0.5  c0.5-0.3,0.8-0.9,1.1-1.4c0.8-1.5,0.5-3.1,0.2-4.7c-0.1-0.8-0.3-1.5-0.9-2.1c-0.2-0.2-0.3-0.6-0.8-0.4c-0.4,0.1-0.3,0.5-0.3,0.7  c-0.2,0.7,0,1.3-0.1,2C46.2,28,45.8,29.7,45.8,31.6z M36.1,62.1c-0.5-0.1-0.8-0.1-1.2-0.2c-0.7-0.2-1.1-0.1-1,0.8  c0.1,1.1,0,2.1,0,3.2c0.1,2.6,0.3,5.2,0.4,7.7c0,0.6,0.4,0.8,0.9,0.8c0.6,0,0.4-0.5,0.4-0.8c0-2.9,0-5.9-0.2-8.8  C35.3,64,35.1,62.9,36.1,62.1z M35.9,77.8c-0.1-0.9-0.3-1.6-0.3-2.4c0-0.5-0.2-0.5-0.6-0.4c-0.4,0-0.5,0.2-0.5,0.6  c0.4,3.7,0.5,7.5,0.8,11.2c0.1,0.8,0.4,1.6,0.6,2.4c0.1,0.2,0.2,0.4,0.5,0.3c0.1,0,0.2-0.1,0.2-0.2c-0.2-1.4,0.3-2.9,0-4.3  C36.1,82.6,35.9,80.2,35.9,77.8z M76.2,39.8c0.4-1.9,0.6-3.4-0.8-4.7c-0.1,0-0.1-0.1-0.1-0.2c-0.2-0.3-0.1-0.5,0.1-0.6  c0.2-0.2,0.5-0.1,0.6,0.1c0.2,0.4,0.5,0.4,0.8,0.3c0.5-0.2,0.7,0.2,0.6,0.6c-0.2,1.4,0.1,2.7,0,4.1c-0.1,1-0.7,2-0.3,3.2  c1.9-3.3,2-6.6,0.3-9.8c-0.1-0.1-0.1-0.4-0.3-0.3c-0.3,0-2.5,2.3-2.5,2.6c0,0.1,0,0.2,0,0.2C75.6,36.5,75.8,38,76.2,39.8z   M42.9,27.5c-1.2,2.1-0.1,4.3,0.1,6.4c0.1,0.6,0.3,1.1,0.5,1.6c0.1,0.2,0.3,0.6,0.6,0.5c0.3-0.1,0.4-0.4,0.3-0.7  c-0.1-0.9,0.1-1.7,0.2-2.6c0.1-0.5,0.2-1.1-0.1-1.5C43.8,30.1,43.5,28.7,42.9,27.5z M76.7,57.6c-0.1,0-0.1-0.1-0.2-0.1  c-1.4,0.2-2.3,1.3-3.1,2.3c-0.2,0.3-0.5,0.6-0.9,0.4c-0.4-0.3-0.2-0.7-0.1-1c0.2-0.4,0.7-0.6,0.7-1c-2.2-0.1-3.6,1.3-5,2.7  c1.4,0.6,2.6-0.3,3.8-0.3c1.3,0,2.5-0.4,3.7-0.7c-0.5-0.3-0.9-0.6-0.4-1.2C75.7,58.3,76.4,58.1,76.7,57.6z M40.6,45.9  c-0.1,1.6-0.4,3.2,0.2,4.7c0.4,1.3,0.7,2.7,1.5,3.9c0.1,0.2,0.2,0.4,0.5,0.3c0.2-0.1,0.2-0.3,0.2-0.6c0-1.3,0-2.6-0.1-3.8  c0-0.3,0-0.6-0.3-0.9c-1.1-0.7-1.3-1.8-1.5-2.9C41,46.4,40.9,46.1,40.6,45.9z M41.4,40c-0.8,2.1,0.3,7.9,1.6,8.6  c0.2-1.3,0.3-2.5,0.5-3.8c0-0.3,0.1-0.9-0.1-1C42.2,42.9,42.2,41.3,41.4,40z M43.5,42.7c0.2-1.3,0.5-2.6,0.6-3.8  c0.1-0.6,0.4-1.4,0-1.6c-1.3-0.9-1.4-2.3-2.1-3.9C41.5,36.9,42.6,39.8,43.5,42.7z M44.1,21.5c-0.8,2.9-0.8,5.5,0.8,8.3  c0.3-1.6,0.6-3,0.8-4.4c0.1-0.6,0.3-1.3-0.2-1.8C44.8,23,44.5,22.4,44.1,21.5z M15.9,79.1c0.3-1.3-0.2-2.4-0.3-3.6  c-0.3-4.2-0.8-8.3-0.9-12.5c0-0.6,0.1-1.1,0.1-1.7c0-0.4-0.2-0.6-0.6-0.6c-0.5,0-0.3,0.4-0.3,0.7c0.1,1.6,0.2,3.2,0.2,4.8  c0,1.6,0.9,3.1,0.7,4.6c-0.3,1.9,0.2,3.6,0.4,5.4C15.3,77.2,15.7,78.1,15.9,79.1z M23.8,55.6c-0.8-0.2-1.3-0.8-1.8-1.2  c-0.7-0.7-1.3-0.5-2.1-0.3c-1,0.3-1.6,1.2-2.7,1.3c-0.1,0-0.3,0.2-0.2,0.4c0.3,0.5,1.8,0.9,2.3,0.5c0.3-0.2,0.5-0.2,0.8-0.2  C21.3,56.3,22.5,55.9,23.8,55.6z M12.7,50c-1.1-1.2-2-2.2-1.9-3.7c0-0.3,0-1.1-0.5-1.1c-0.5,0-0.9,0.5-1.1,1  c-0.1,0.2-0.1,0.5-0.2,0.7c-0.2,0.8,0.2,1.5,0.2,2.3c0,0.5,0.1,0.9,0.9,0.9C11,50.1,11.8,49.9,12.7,50z M45.9,16.2  c-1.2,1.7-1.4,3.5-0.8,5.4c0.1,0.3,0.2,0.7,0.6,0.7c0.3,0,0.4-0.4,0.4-0.7c0.3-1.2,0.5-2.3,1-3.4c0.1-0.2,0.1-0.6,0-0.6  C46,17.7,46.5,16.5,45.9,16.2z M19.5,53.1c-0.6-0.3-1.1-0.9-1.8-0.8c-1.1,0.2-2.1,0.5-3.2,0.9c-0.3,0.1-0.7,0.3-0.3,0.8  c0.3,0.4,0.6,0.9,1.2,0.5c0.4-0.3,0.8-0.7,1.2,0c0.1,0.2,0.4,0.1,0.6,0c0.7-0.3,1.4-0.7,2.1-1C19.4,53.5,19.6,53.4,19.5,53.1z   M87.3,77.1c0.4,0,0.9,0.2,1.1-0.4c0.2-0.7,0.5-1.4,0.9-2.1c0.2-0.5,0.1-0.8-0.6-0.6c-0.7,0.2-1.3,0.6-2,0.8  c-1.3,0.3-1.1,1.3-0.9,2.1c0.2,0.8,0.9,0.1,1.3,0.2C87.2,77.1,87.2,77.1,87.3,77.1z M20.7,57.2c2.1,1.6,4,1.5,6-0.2  c-0.1-0.1-0.2-0.2-0.4-0.2C24.4,55.8,22.6,57.1,20.7,57.2z M61.3,32.5c0.5-0.8,1.1-1.4,0.2-2.1c-0.3-0.3-0.4-0.9-0.3-1.3  c0.2-1.3-0.1-2.6,0-3.8c0.1-1.4-0.7-2.4-1-3.6c-0.7,0.9-0.5,1.7-0.1,2.7c0.4,0.7,0.7,1.6,0.6,2.4C60.7,28.5,60.9,30.4,61.3,32.5z   M52.4,13.2c0-0.4-0.1-0.7-0.1-1.1c0-0.5-0.3-0.6-0.6-0.7c-0.6-0.1-1.8,0.4-1.9,0.9c-0.2,0.9,0.4,1.9,1.2,2  C52.5,14.7,52.5,14.7,52.4,13.2z M70.3,47.7c0.8-1.9-0.7-5.6-1.5-6.7c-0.2-0.2-0.2-0.3-0.5-0.1c-0.3,0.2-0.5,0.3-0.4,0.7  c0.1,0.3,0.1,0.6,0.5,0.5c0.6-0.1,0.8,0.4,0.7,0.6c-0.5,1.1,0.9,2.2-0.3,3.2c0,0,0.1,0.2,0.2,0.4C69.3,46.8,69.7,47.3,70.3,47.7z   M46.6,61.9c1.3,1.2,4.2,0.3,5.3-1.5C49.8,59.6,48.3,61.1,46.6,61.9z M10.7,51.5c0.7,0.4,1.1,1.1,1.9,1c1.1-0.2,2.2-0.4,3.3-0.7  c0.2,0,0.4-0.1,0.5-0.4c0-0.2-0.2-0.3-0.3-0.4c-0.7-0.6-1.4-0.1-2.1-0.2C12.8,50.7,11.8,51.1,10.7,51.5z M60.3,61.7  c0.5,0,1.1,0.1,1.6,0c0.9,0,1.8,0.1,2-1.2c0.1-0.3,0.3-0.6,0.5-0.9C63,59.2,61.4,59.9,60.3,61.7z M51.8,62.2c1.1,0,2.1-0.2,3,0.2  c0.2,0.1,0.5,0.1,0.5-0.1c0-1,1-1.4,1.3-2.2C53.6,60.5,53,60.8,51.8,62.2z M54.7,16.2c-0.1-1.1,0.3-2.1,0.4-3.2  c0.1-0.9-0.6-0.8-1.1-1.1c-0.3-0.2-0.6,0.1-0.6,0.4c0,0.9-0.2,1.8,0,2.7C53.5,15.6,54.3,15.9,54.7,16.2z M57,18.3  c-0.1-1.1,0.1-1.9,0.5-2.7c0.2-0.4-0.5-1.6-1.3-2.4c-0.1,0.9-0.2,1.8-0.5,2.6C55.3,17.1,56.1,17.5,57,18.3z M39.1,50.5  c-1.7,2.1-1.8,3.7-0.3,6.3c0.1-0.5,0.1-0.6-0.1-0.9c-0.1-0.1-0.3-0.2-0.1-0.5C39.5,54,39.1,52.4,39.1,50.5z M47.1,15.3  c0,0.3-0.1,0.6-0.1,0.9c0,0.3,0.3,0.5,0.6,0.4c0.9-0.4,1.6-2.3,1.3-3.2c-0.2-0.7-0.6-0.6-1-0.3C47,13.5,47.1,14.5,47.1,15.3z   M68.7,58.8c-1.6-0.1-2.6,0.5-3.4,1.6c-0.2,0.2-0.6,0.4-0.4,0.8c0.2,0.5,0.7,0.2,0.9,0.2c0.5,0,1.5,0.2,1.5-0.3  C67.4,60.1,68.2,59.7,68.7,58.8z M80.7,56.8c-1.4,0-4.4,2.1-4.6,3.1c0.8-0.3,1.5-0.4,2.3-0.5c0.3,0,0.8-0.2,0.8-0.5  C79.2,57.9,80,57.5,80.7,56.8z M58.2,17c-0.6,1.1-0.4,3.2,0.4,3.9c0.2,0.2,0.5,0.6,0.7,0.3c0.3-0.4,0.8-1,0.4-1.6  C59.2,18.8,59,17.7,58.2,17z M43.5,60.2c0-0.1-0.1-0.2-0.1-0.2c-0.3,0-0.7,0-0.9-0.1c-1.3-0.5-2.2,0.3-3,1.2  c-0.4,0.5-0.2,0.7,0.3,0.8C41.4,62.1,42.4,60.9,43.5,60.2z M84.8,33.9c1.3-1.4,1.4-2.8,0.4-4.2c-0.2-0.2-0.3-0.5-0.6-0.4  c-0.3,0.1-0.6,0.4-0.7,0.7c-0.1,0.2,0.1,0.4,0.3,0.6c0.4,0.4,0.9,0.8,0.4,1.5C84.3,32.6,84.4,33.2,84.8,33.9z M27.4,59.6  c0.7-0.4,1.6-0.9,2.3-1.4c0.2-0.2,0-0.4-0.2-0.4c-0.6,0-1.2-0.5-1.8,0.1c-0.5,0.4-1.2,0.6-1.8,0.9c-0.2,0.1-0.6,0.1-0.6,0.4  c0,0.5,0.4,0.2,0.7,0.2C26.4,59.5,26.9,59.5,27.4,59.6z M33.6,21.7c-0.3,0-0.5,0-0.6,0.2c-0.1,0.2,0.1,0.3,0.2,0.4  c1.4,0.3,2.4,1.1,3.4,2.1c0.2,0.2,0.4,0.2,0.6-0.1c0.3-0.4,0.9-0.8-0.1-1.1c0.3-1.3-0.7-0.7-1.2-0.9c-0.5-0.1-1.1-0.1-1.6-0.3  C34.1,22,34,21.7,33.6,21.7z M35.4,61c1,0.1,1.6,0.6,2.5,0.6c0.3,0,0.6,0,0.6-0.3c0-0.5,0.4-0.9,0.7-1.3  C37.6,59.1,36.7,60.1,35.4,61z M60.2,59.8c-1.1,0.7-2.5,0.6-3.4,1.7c-0.1,0.2-0.4,0.2-0.3,0.5c0.1,0.2,0.4,0.2,0.6,0.2  C58.9,62.5,59.5,61.1,60.2,59.8z M47.7,60.3c-1.9-0.3-3.3,0.2-4.9,1.7c0.7-0.1,1.3,0.5,1.8,0C45.5,61.3,46.5,60.9,47.7,60.3z   M28.8,59.6c1.9,0.9,2.8,0.7,3.9-0.8C31.1,57.5,30.3,59.4,28.8,59.6z M13.7,57.5C13.7,57.5,13.7,57.5,13.7,57.5c0,0.6,0,1.2,0.1,1.7  c0,0.2,0,0.4,0.2,0.4c0.2,0,0.4-0.1,0.4-0.4c0-0.1,0-0.3,0-0.4c0.3-0.8-0.3-1.9,0.7-2.5c0.1-0.1,0-0.4-0.1-0.4  c-0.4-0.1-0.7-0.7-1.2-0.6c-0.3,0.1-0.1,0.4-0.1,0.6C13.6,56.4,13.7,57,13.7,57.5z M35.9,59.5c-1-0.3-1.8-0.3-2.6,0.3  c-0.2,0.2-0.8,0.3-0.4,0.8c0.3,0.4,0.7,0.4,1.1,0.2C34.6,60.4,35.2,59.9,35.9,59.5z M36.2,49.7c-0.9,1.8-0.8,3.7-0.1,5.5  C35.8,53.4,36.3,51.6,36.2,49.7z M27,45.7c0.3-0.7,0.7-0.9,1-1.3c0.3-0.3,0.4-0.7-0.2-0.7c-0.7,0-1-0.5-1.5-1  C26.3,43.7,26.6,44.6,27,45.7z M68.2,45.2c0.4-1.3-0.6-1.7-1.3-2.4c-0.2-0.2-0.4-0.4-0.6-0.1c-0.2,0.2-0.5,0.4,0,0.7  C67,44,67.6,44.6,68.2,45.2z M36.3,56.2c0.1,0.5,0.1,0.9,0.2,1c0.6,0.2,1,0.4,0.9,1.1c0,0.1,0.8,0.2,1.2,0.3c0.2,0,0.3-0.1,0.3-0.3  c0-0.5-0.6-0.4-0.6-0.5C37.9,57.1,36.9,57.2,36.3,56.2z M83.3,28.7c0.4-1,0.4-1,1.3-0.6c-0.1-0.4-0.1-0.8-0.1-1.3  C82.6,27.8,82.6,27.8,83.3,28.7z M36.5,49.1c1.1-0.7,2-1.6,3-2.4C38.7,46.6,36.9,48.1,36.5,49.1z M60.6,49.9c0-0.3-0.1-0.5-0.4-0.4  c-0.3,0.1-0.7,0.3-0.6,0.6c0,0.4,0.4,0.5,0.7,0.5C60.7,50.5,60.5,50.1,60.6,49.9z M38.2,49.5c0.9-0.1,1.5-0.3,1.2-1.4  C38.9,48.5,38.4,48.9,38.2,49.5z M12.4,46.1c-0.3,1.3-0.2,1.5,0.6,2C12.7,47.4,12.5,46.8,12.4,46.1z"></path><path d="M47.8,48c0.6,2.3,0,4.5-0.6,6.7c-0.3,1-0.6,1.9-0.9,2.8c-0.2,0.5-0.6,0.8-0.9,0.6c-0.6-0.3-0.2-0.7,0.1-1.1  c1-1.6,1.2-3.4,1-5.3c-0.1-0.8-0.6-1.1-1.2-1.3c-0.3-0.1-0.8-0.2-0.5-0.7c0.2-0.4,0.6-0.5,1-0.2c0.5,0.4,1,0.6,1.5,1.3  c0.1-0.9,0-1.5-0.2-2.1c-0.1-0.3-0.3-0.5-0.3-0.8c0-0.9,0.3-2-1.2-2c-0.2,0-0.2-0.3-0.1-0.5c0.2-0.4,0.6-0.4,0.8-0.3  c0.8,0.4,1.6,0.8,2.1,1.5c2.1,3.1,1.9,6.5,0.7,9.8c0,0.1-0.1,0.1-0.1,0.2c-0.3,0.3-0.5,1.1-1.1,0.7c-0.5-0.3,0-0.8,0.2-1.2  c1.4-2.5,1.2-5,0.3-7.6C48.2,48.5,47.9,48.2,47.8,48z"></path><path d="M67.8,37c0.2-0.8,0.4-1.9,0.7-2.9c0.5-2.3,1.1-4.6,2.1-6.8c1.6-3.4,3.9-6.3,6.8-8.7c0.1-0.1,0.3-0.2,0.4-0.3  c0.3-0.2,0.6-0.3,0.8,0c0.2,0.3,0.1,0.6-0.2,0.8c-0.9,0.9-1.9,1.8-2.8,2.7c-2.2,2.1-3.6,4.7-4.7,7.5c-0.9,2.5-1.6,5-1.9,7.6  c0,0.2-0.1,0.4-0.2,0.6c-0.1,0.2-0.3,0.5-0.7,0.4C67.8,37.8,67.8,37.6,67.8,37z"></path><path d="M72.3,28.1c-0.6,1.3-0.2,2.6-0.6,4.1c0.9-1.1,1.2-2.3,2.4-3.2c-0.3,1.3-0.8,2.4-0.9,3.6c0,0.4-0.6,0.8-1,1.2  c-0.4,0.4-0.8,0.6-1,1.2c-0.1,0.3-0.4,0.2-0.6,0.1c-0.4-0.2-0.3-0.6-0.2-0.8c0.2-0.9,0.5-1.7,0.9-2.5c0.4-0.8-0.2-1.6,0.1-2.4  C71.7,28.8,71.8,28.4,72.3,28.1z"></path><path d="M75.1,26.8c-0.1-0.8,0.2-1.3,0-2c-1,0.7-1.4,1.9-2.4,2.5c0-0.8,0.6-1.2,0.9-1.7c0.8-1.2,1.7-2.4,2.5-3.6  c0.2-0.3,0.5-0.7,0.8-0.4c0.4,0.3,0,0.6-0.2,0.9c-0.4,0.5-0.7,1-0.6,1.8C76.3,25.2,75.7,25.9,75.1,26.8z"></path><path d="M13.8,15.1c-0.5,2.4-1.1,4.8-2.3,7c-0.4,0.8-0.9,1.5-1.4,2.3c-0.2,0.2-0.3,0.7-0.7,0.5C9,24.8,9,24.3,9.1,24  c0.5-2.4,1-4.8,1.9-7.1c0.3-0.8,0.6-1.5,0.9-2.3c0.2-0.5,0.4-0.9,1.1-0.8C13.8,14,13.7,14.5,13.8,15.1z M12.9,15.2  c-1.4,1.3-1.3,3.1-2,4.4C12,18.4,12.8,17,12.9,15.2z"></path><path d="M11.7,30.1c-0.1-2.5,1.1-4.7,2-6.9c0.2-0.5,0.5-1,0.7-1.5c0.1-0.3,0.1-0.7,0.6-0.6c0.4,0.1,0.6,0.4,0.6,0.8  c0.2,1.1,0.2,2.2-0.3,3.2c-0.8,1.7-1.5,3.4-2.1,5.1c-0.1,0.2-0.2,0.4-0.3,0.6c-0.2,0.4-0.4,0.7-0.9,0.6c-0.5-0.1-0.3-0.6-0.4-0.9  C11.7,30.5,11.7,30.3,11.7,30.1z"></path><path d="M17.6,30.4c0.2,1.2-0.4,2.3-0.7,3.4c-0.3,1.4-0.6,2.7-1.1,4.1c-0.1,0.4-0.3,0.8-0.7,0.8c-0.4,0-0.7-0.3-0.8-0.7  c-0.3-0.9-0.1-1.7,0-2.5c0.3-1.6,0.6-3.2,1.3-4.7c0.2-0.5,0.4-1,0.4-1.5c0-0.5,0.4-0.8,0.8-0.9c0.5-0.1,0.4,0.5,0.6,0.8  C17.7,29.5,17.6,30,17.6,30.4z M16.8,30.2c-0.9,1.3-1.3,2.7-1.5,4.2c0,0.2,0.2,0.3,0.3,0.3c0.2,0,0.3-0.1,0.3-0.3  C16.2,33.1,17.1,31.8,16.8,30.2z"></path><path d="M20,38.8c0.3,1.3-0.2,2.5-0.6,3.7c-0.3,1-0.6,2-1,3c-0.2,0.4-0.4,1-0.9,0.9c-0.5-0.1-0.3-0.7-0.3-1.1c0.2-2.4,0.7-4.8,1.5-7  c0.1-0.2,0.1-0.5,0.2-0.7c0.1-0.2,0.3-0.5,0.7-0.4c0.3,0.1,0.4,0.3,0.4,0.6C20,38.1,20,38.4,20,38.8z M19,39.7  c-0.3,0.9-0.5,1.9-0.8,2.8C18.8,41.7,19.2,40.8,19,39.7z"></path><path d="M20.6,50.1c0.3-1.3,0.5-2.7,0.8-4c0.1-0.4,0-0.7,0.1-1.1c0-0.3,0.1-0.7,0.4-0.8c0.4-0.2,0.5,0.2,0.6,0.4  c0.2,0.5,0.2,0.1,0.4,0c0.1-0.1,0.2-0.3,0.4-0.2c0.2,0.1,0.2,0.3,0.2,0.5c-0.4,1.8-0.4,3.7-1.1,5.5c-0.1,0.4-0.4,0.8-1,0.6  C20.8,50.9,20.5,50.7,20.6,50.1z M22.1,46.9c-0.7,0.9-0.9,2.2-0.6,3.1C21.9,48.9,21.9,47.9,22.1,46.9z"></path><path d="M68.7,81.6c0.9-0.1,1.8-0.6,2.8-0.4c0.3,0,0.5,0,0.5,0.3c0,0.3-0.2,0.4-0.4,0.4c-2.1-0.1-4,0.9-6,1.4  c-0.3,0.1-0.7,0.1-0.8-0.3c-0.1-0.4,0.3-0.4,0.5-0.5C66.4,82,67.5,81.8,68.7,81.6z"></path><path d="M31.9,83.7c-1.3-0.1-2.4-0.6-3.7-0.3c-0.2,0-0.3-0.1-0.4-0.3c0-0.3,0.1-0.5,0.3-0.6c0.5-0.1,1-0.2,1.5-0.1  c0.7,0.2,1.4,0.4,2.2,0.6c0.2,0.1,0.5,0.1,0.5,0.5C32.3,83.8,32.1,83.7,31.9,83.7z"></path><path d="M47.7,84.5c-0.9,0.4-1.8,0-2.7,0c-2.1,0-4.2,0.3-6.4,0.2c-0.4,0-0.9,0.1-1-0.4c0-0.6,0.6-0.6,1-0.6c1.3,0,2.7,0.1,4,0.1  c1.6,0,3.1,0.1,4.7,0.3C47.6,84.2,47.7,84.2,47.7,84.5z"></path><path d="M48,88.2c-2.2,0.5-4.1,0.4-6,0.4c-1,0-1.9,0-2.9,0c-0.3,0-0.6,0-0.7-0.3c-0.1-0.4,0.3-0.6,0.6-0.6c0.7-0.2,1.5-0.2,2.2,0  c1.7,0.4,3.5,0.2,5.3,0.3C46.9,87.9,47.3,88,48,88.2z"></path><path d="M47.2,76.3c-1,0.2-1.8-0.1-2.6-0.2c-1.5-0.1-3-0.2-4.5,0.1c-0.6,0.1-1.2,0-1.8-0.2c-0.3-0.1-0.6,0-0.6-0.4  c0-0.3,0.3-0.5,0.6-0.5c0.5,0,0.9,0.1,1.4,0.2c1.9,0.2,3.9,0,5.8,0.3C46,75.7,46.6,75.7,47.2,76.3z"></path><path d="M37.6,16.9c-0.3-0.1-0.7,0.2-1,0.4c-1.2,0.6-2.4,1.1-3.8,1.1c-1,0-1.9,0.4-2.7,0.9c-0.9,0.5-2,0.9-2.8,1.5  c-0.3,0.2-0.9,0.5-1.2,0.1c-0.3-0.4-0.3-1,0.2-1.4c0.7-0.7,1.4-1.4,2.3-2c2.1-1.3,4.3-2.4,6.8-2.7c1.2-0.1,2.5-0.1,3.7,0.4  c0.7,0.3,0.1,0.2,0,0.3c-0.2,0.2-0.2,0.6-0.4,0.9C38.4,16.9,38.3,17.2,37.6,16.9z M29,18.6c1.7-0.7,3.4-1.2,5.3-1.3  c1,0,2.2-0.3,3-1.3C34,15.5,31.3,16.6,29,18.6z"></path><path d="M59.5,84.3c-0.3,0.1-0.7,0.3-1,0.3c-1.7,0-3.4,0.4-5.1,0.5c-0.4,0-0.9,0.2-0.9-0.4c0-0.5,0.5-0.5,0.8-0.5  C55.4,84.2,57.4,83.9,59.5,84.3z"></path><path d="M89.5,64.3c0.3,0.1,0.7-0.2,0.8,0.2c0.1,0.3-0.2,0.4-0.4,0.5c-1.2,0.6-2.6,0.7-3.6,1.7c-0.1,0.1-0.5,0.2-0.6-0.1  c-0.2-0.3,0-0.5,0.2-0.7C86.8,64.7,88.2,64.6,89.5,64.3z"></path><path d="M29.8,40c0.2-0.5,0.3-1,0.5-1.5c0.1-0.5,0.1-0.8-0.6-0.8c-0.3,0-0.7,0.1-0.7-0.4c0.1-0.5,0.5-0.5,0.8-0.4  c0.6,0.3,1.2,0.6,1.4-0.5c0,0,0.3-0.1,0.4,0c0.1,0.1,0.2,0.2,0.2,0.4c-0.2,1.3-0.8,2.4-1.7,3.4C30,40.1,29.9,40,29.8,40z"></path><path d="M31.5,30.5c-0.1-0.7,0.3-1.1,0.3-1.6c0.1-0.5,0-1-0.7-1c-0.3,0-0.8,0.2-0.6-0.4c0.1-0.4,0.5-0.8,1-0.5  c0.5,0.3,1,0.8,1.6,0.2c0.1-0.1,0.3,0,0.3,0.2c0.1,0.2,0,0.4-0.1,0.5c-0.5,0.3-0.3,0.7-0.1,1.1c0.5,1.1,1.4,2,2.1,2.9  c-1,0-1.3-0.8-1.7-1.4C32.6,29.1,32.6,29.1,31.5,30.5z"></path></svg>