<svg xmlns="http://www.w3.org/2000/svg" xmlns:xlink="http://www.w3.org/1999/xlink" version="1.1" x="0px" y="0px" viewBox="0 0 100 100" style="enable-background:new 0 0 100 100;" xml:space="preserve"><style type="text/css">
	.st0{fill:none;stroke:#000000;stroke-width:2;stroke-linecap:round;stroke-linejoin:round;stroke-miterlimit:10;}
	.st1{fill:none;stroke:#000000;stroke-width:2;stroke-linecap:round;stroke-linejoin:round;}
	.st2{fill:none;stroke:#000000;stroke-width:2;stroke-linecap:round;stroke-linejoin:round;stroke-dasharray:4.2934,4.2934;}
	.st3{fill:none;stroke:#000000;stroke-width:2;stroke-linecap:round;stroke-linejoin:round;stroke-dasharray:3.7696,3.7696;}
	.st4{fill:none;stroke:#000000;stroke-width:2;stroke-linecap:round;stroke-linejoin:round;stroke-dasharray:3.0341,5.0568;}
	.st5{fill:none;stroke:#000000;stroke-width:2;stroke-linecap:round;stroke-linejoin:round;stroke-dasharray:3.9789,3.9789;}
	.st6{fill:none;stroke:#000000;stroke-width:2;stroke-linecap:round;stroke-linejoin:round;stroke-dasharray:3.945,3.945;}
</style><path d="M29.172,10c-7.845,0-14.228,6.379-14.228,14.219s6.383,14.219,14.228,14.219S43.4,32.058,43.4,24.218S37.017,10,29.172,10z   M29.172,36.437c-6.743,0-12.228-5.481-12.228-12.219S22.429,12,29.172,12S41.4,17.481,41.4,24.218S35.915,36.437,29.172,36.437z"></path><path d="M10,57.435c0,5.098,4.149,9.244,9.25,9.244c5.1,0,9.25-4.146,9.25-9.244s-4.149-9.244-9.25-9.244  C14.149,48.191,10,52.337,10,57.435z M19.25,50.191c3.998,0,7.25,3.25,7.25,7.244s-3.252,7.244-7.25,7.244S12,61.429,12,57.435  S15.252,50.191,19.25,50.191z"></path><path d="M16.21,58.435c0.552,0,1-0.447,1-1c0-1.123,0.915-2.037,2.04-2.037c0.552,0,1-0.447,1-1s-0.448-1-1-1  c-2.228,0-4.04,1.812-4.04,4.037C15.21,57.988,15.658,58.435,16.21,58.435z"></path><path d="M27.5,15.953c-3.611,0-6.548,2.937-6.548,6.545c0,0.553,0.448,1,1,1s1-0.447,1-1c0-2.506,2.041-4.545,4.548-4.545  c0.552,0,1-0.447,1-1S28.052,15.953,27.5,15.953z"></path><path d="M78.226,57.128c0.419-1.571,0.643-3.192,0.643-4.834c0-10.334-8.413-18.741-18.754-18.741S41.36,41.959,41.36,52.293  c0,10.335,8.414,18.742,18.755,18.742c0.478,0,0.958-0.036,1.437-0.073c-0.001,0.053-0.008,0.104-0.008,0.156  c0,7.84,6.383,14.218,14.228,14.218S90,78.959,90,71.12C90,64.118,84.904,58.295,78.226,57.128z M60.115,69.036  c-9.239,0-16.755-7.511-16.755-16.742s7.516-16.741,16.755-16.741c9.238,0,16.754,7.51,16.754,16.741  c0,1.576-0.227,3.131-0.658,4.63c-0.147-0.004-0.292-0.022-0.44-0.022c-7.107,0-12.996,5.24-14.045,12.053  C61.193,69.005,60.652,69.036,60.115,69.036z M75.772,83.337c-6.743,0-12.228-5.48-12.228-12.218s5.485-12.219,12.228-12.219  S88,64.382,88,71.12S82.515,83.337,75.772,83.337z"></path><path d="M74.1,62.854c-3.611,0-6.548,2.936-6.548,6.544c0,0.553,0.448,1,1,1s1-0.447,1-1c0-2.506,2.041-4.544,4.548-4.544  c0.552,0,1-0.447,1-1S74.652,62.854,74.1,62.854z"></path><path d="M60.115,39.186c-6.791,0-12.315,5.521-12.315,12.307c0,0.553,0.448,1,1,1s1-0.447,1-1c0-5.683,4.627-10.307,10.315-10.307  c0.552,0,1-0.447,1-1S60.667,39.186,60.115,39.186z"></path><path d="M38.459,63.374l-1.761,3.219c-1.666,3.044-4.157,5.532-7.203,7.197l-3.221,1.761c-0.321,0.175-0.521,0.512-0.521,0.877  c0,0.366,0.2,0.702,0.521,0.878l3.221,1.76c3.046,1.664,5.537,4.153,7.202,7.197l1.761,3.218C38.635,89.8,38.972,90,39.337,90  s0.702-0.199,0.877-0.52l1.762-3.218c1.666-3.044,4.156-5.533,7.202-7.197l3.221-1.76c0.321-0.176,0.521-0.512,0.521-0.878  c0-0.365-0.2-0.702-0.521-0.878l-3.221-1.761c-3.045-1.664-5.536-4.152-7.202-7.196l-1.762-3.219  C39.862,62.732,38.81,62.733,38.459,63.374z M40.222,67.553c1.85,3.379,4.615,6.143,7.997,7.991l1.615,0.883l-1.615,0.882  c-3.382,1.849-6.148,4.612-7.997,7.992l-0.885,1.615l-0.884-1.615c-1.85-3.38-4.616-6.144-7.998-7.992l-1.615-0.882l1.615-0.883  c3.382-1.849,6.148-4.611,7.998-7.991l0.884-1.616L40.222,67.553z"></path><path d="M52.62,22.66c1.396,0.764,2.538,1.904,3.302,3.3l0.857,1.566c0.175,0.32,0.512,0.52,0.877,0.52  c0.366,0,0.702-0.199,0.877-0.521l0.857-1.565c0.763-1.396,1.905-2.536,3.301-3.299l1.568-0.856  c0.321-0.176,0.521-0.512,0.521-0.878s-0.2-0.702-0.521-0.878l-1.568-0.855c-1.396-0.764-2.537-1.904-3.301-3.299l-0.857-1.566  c-0.176-0.321-0.512-0.521-0.877-0.521c-0.365,0-0.702,0.199-0.877,0.52l-0.857,1.566c-0.764,1.396-1.906,2.536-3.301,3.299  l-1.567,0.856c-0.321,0.176-0.521,0.513-0.521,0.878s0.2,0.702,0.521,0.878L52.62,22.66z M57.656,16.89  c0.94,1.702,2.335,3.096,4.038,4.036c-1.703,0.94-3.098,2.335-4.038,4.036c-0.94-1.701-2.334-3.096-4.038-4.036  C55.32,19.986,56.715,18.592,57.656,16.89z"></path><path d="M22.782,80.814c-1.472-0.804-2.675-2.007-3.479-3.478l-0.899-1.643c-0.352-0.642-1.405-0.643-1.755,0.001l-0.898,1.642  c-0.805,1.471-2.009,2.674-3.48,3.478l-1.643,0.897c-0.321,0.176-0.521,0.512-0.521,0.878c0,0.365,0.199,0.702,0.52,0.877  l1.644,0.899c1.472,0.804,2.675,2.007,3.48,3.478l0.898,1.642c0.176,0.32,0.512,0.52,0.877,0.52c0.365,0,0.702-0.199,0.877-0.52  l0.899-1.642c0.805-1.471,2.008-2.674,3.48-3.479l1.643-0.898c0.321-0.175,0.52-0.512,0.52-0.877c0-0.366-0.2-0.702-0.521-0.878  L22.782,80.814z M21.823,82.61c-1.808,0.988-3.287,2.466-4.275,4.272l-0.022,0.04l-0.021-0.04c-0.989-1.807-2.467-3.284-4.275-4.271  l-0.038-0.021l0.037-0.02c1.808-0.988,3.287-2.466,4.276-4.273l0.021-0.039l0.021,0.04c0.989,1.807,2.467,3.284,4.275,4.272  l0.037,0.02L21.823,82.61z"></path><path d="M89.479,19.622l-2.434-1.328c-2.26-1.236-4.108-3.083-5.344-5.342l-1.331-2.433c-0.352-0.641-1.403-0.641-1.755,0  l-1.331,2.433c-1.236,2.259-3.084,4.105-5.345,5.341l-2.434,1.329c-0.321,0.176-0.521,0.512-0.521,0.878  c0,0.365,0.2,0.702,0.521,0.878l2.434,1.329c2.26,1.236,4.108,3.083,5.345,5.342l1.331,2.432C78.792,30.8,79.128,31,79.493,31  s0.702-0.199,0.877-0.52l1.331-2.432c1.236-2.259,3.084-4.105,5.345-5.341l2.434-1.33C89.8,21.202,90,20.865,90,20.5  C90,20.133,89.8,19.797,89.479,19.622z M86.087,20.953c-2.597,1.419-4.72,3.541-6.14,6.135l-0.454,0.829l-0.454-0.829  c-1.42-2.594-3.543-4.716-6.14-6.136L72.072,20.5l0.828-0.452c2.597-1.419,4.72-3.541,6.14-6.135l0.454-0.83l0.454,0.83  c1.42,2.594,3.543,4.716,6.14,6.136l0.827,0.451L86.087,20.953z"></path></svg>