<svg xmlns="http://www.w3.org/2000/svg" xmlns:xlink="http://www.w3.org/1999/xlink" version="1.1" x="0px" y="0px" viewBox="0 0 100 100" enable-background="new 0 0 100 100" xml:space="preserve"><path d="M72.365,65.727c3.288-9.659,12.248-42.119-10.546-54.961c-9.797-5.52-24.065-2.715-27.893,3.398  c-6.752,4.064-16.188,25.725-5.575,51.686c-6.846,2.984-12.807,7.523-12.807,18.279c0,7.256,1.699,8.545,2.835,8.674h32.146  l32.265-0.016c0.991-0.179,2.652-1.541,2.652-8.658C85.443,73.23,79.326,68.712,72.365,65.727z M35.161,15.829l0.258-0.141  l0.146-0.253c2.783-4.873,15.737-8.232,25.244-2.875c21.324,12.017,12.847,42.945,9.646,52.389l-0.406-0.16  c-4.525-1.778-8.431-3.312-9.666-6.644c-0.71-1.929-0.321-3.799,0.032-4.866c3.007-2.902,5.273-6.837,5.887-10.882  c1.329-0.336,2.625-1.701,3.354-3.612c1.038-2.719,0.549-5.325-1.132-6.057c-0.632-0.282-1.355-0.253-2.044,0.056v-1.09  c0-6.339-7.882-6.564-14.834-6.761c-9.217-0.266-11.396-2.45-13.887-6.012l-0.885-1.265l-0.829,1.303  c-2.428,3.821-2.514,10.265-2.349,13.752c-0.634-0.237-1.298-0.237-1.868,0.014c-1.691,0.738-2.179,3.344-1.135,6.064  c0.188,0.482,0.408,0.929,0.658,1.335c0.044,5.605,2.107,7.172,4.505,7.582c1.21,2.327,2.899,4.46,4.845,6.173  c0.295,0.871,0.591,2.399-0.099,4.266c-1.229,3.329-5.131,4.861-9.649,6.64l-0.7,0.275C19.342,38.449,30.1,18.572,35.161,15.829z   M38.288,65.003l8.162,25.52l-9.406-13.121l3.191-4.907l-4.207-4.469L38.288,65.003z M39.706,62.67  c1.262-1.021,2.251-2.246,2.828-3.811c0.435-1.171,0.561-2.247,0.541-3.187c2.212,1.416,4.598,2.273,6.896,2.273h0.406  c2.562,0,5.194-1.002,7.573-2.647c-0.064,1.08,0.036,2.301,0.501,3.561c0.571,1.54,1.547,2.751,2.781,3.765l-5.621,17.581H45.315  L39.706,62.67z M41.188,47.85c0.519,1.283,1.961,2.217,3.671,2.217c2.149,0,3.897-1.456,3.897-3.246c0-1.792-1.748-3.25-3.897-3.25  c-1.71,0-3.152,0.936-3.671,2.22h-3.356c-0.222,0-0.437-0.002-0.649-0.008c-0.626-1.424-1.054-2.924-1.192-4.463l-0.169-1.168  l-1.148,0.264c-0.481,0-1.461-0.823-2.056-2.367c-0.698-1.816-0.374-3.259,0.133-3.457c0.281,0,0.8,0.315,1.323,1.02l2.293,3.089  l-0.442-3.821c-0.013-0.091-0.939-8.386,1.15-13.428c2.876,3.612,6.151,5.299,14.512,5.541c7.753,0.221,12.835,0.668,12.835,4.702  v6.426l1.856-2.508c0.521-0.704,0.992-1.006,1.418-1c0.408,0.179,0.732,1.619,0.038,3.439c-0.589,1.536-1.566,2.358-2.113,2.358  c-0.002,0-0.004,0-0.006,0l-1.148-0.261l-0.106,1.172c-0.652,7.215-7.707,14.567-13.981,14.567h-0.406  c-3.91,0-8.854-3.371-11.707-8.037H41.188z M43.028,46.821c0-0.636,0.855-1.19,1.831-1.19c0.979,0,1.838,0.555,1.838,1.19  c0,0.561-0.754,1.187-1.838,1.187C43.781,48.007,43.028,47.381,43.028,46.821z M34.711,45.039c-0.56-0.515-0.97-1.397-1.169-2.867  c0.169,0.076,0.334,0.181,0.505,0.225C34.184,43.283,34.417,44.166,34.711,45.039z M62.655,64.944l2.307,3.081l-4.211,4.469  l3.193,4.907L54.428,90.68L62.655,64.944z M17.604,84.129c0-9.845,5.04-13.826,13.171-17.061l0.932-0.368  c1.376-0.541,2.719-1.08,3.986-1.663l-2.352,3.142l4.284,4.549l-3.075,4.73l9.524,13.285L18.676,90.75  C18.427,90.45,17.604,89.082,17.604,84.129z M50.462,90.743h-1.777l-2.712-8.479h8.982l-2.711,8.479H50.462z M82.299,90.743H56.916  l9.522-13.285l-3.077-4.73l4.288-4.549l-2.354-3.142c1.271,0.585,2.619,1.126,3.998,1.667l0.924,0.364  c8.129,3.234,13.167,7.216,13.167,17.061C83.385,88.998,82.567,90.41,82.299,90.743z"></path></svg>