<svg xmlns="http://www.w3.org/2000/svg" xmlns:xlink="http://www.w3.org/1999/xlink" version="1.1" x="0px" y="0px" viewBox="0 0 100 100" style="enable-background:new 0 0 100 100;" xml:space="preserve"><path d="M45.635,80.667h2.078c0.553,0,1-0.448,1-1s-0.447-1-1-1h-2.078c-0.553,0-1,0.448-1,1S45.082,80.667,45.635,80.667z"></path><path d="M55.321,80.667H57.4c0.553,0,1-0.448,1-1s-0.447-1-1-1h-2.079c-0.553,0-1,0.448-1,1S54.769,80.667,55.321,80.667z"></path><path d="M45.635,85.982h2.078c0.553,0,1-0.448,1-1s-0.447-1-1-1h-2.078c-0.553,0-1,0.448-1,1S45.082,85.982,45.635,85.982z"></path><path d="M55.321,85.982H57.4c0.553,0,1-0.448,1-1s-0.447-1-1-1h-2.079c-0.553,0-1,0.448-1,1S54.769,85.982,55.321,85.982z"></path><path d="M40.192,64.208c-0.271-0.15-0.597-0.165-0.881-0.043c-0.284,0.123-0.496,0.371-0.572,0.67L37.932,68h-2.598  c-8.938,0-16.209,7.271-16.209,16.209V89c0,0.552,0.447,1,1,1H80c0.553,0,1-0.448,1-1v-4.791C81,75.271,73.729,68,64.791,68h-2.598  l-0.808-3.164c-0.076-0.3-0.288-0.548-0.572-0.67c-0.285-0.123-0.609-0.108-0.881,0.043l-1.959,1.084v-5.469  c4.351-2.728,7.096-7.529,7.096-12.838c0-3.337-1.122-6.576-3.153-9.22v-5.982c3.885-1.4,6.312-5.252,5.843-9.442  c-0.445-3.99-3.654-7.289-7.631-7.844c-1.037-0.146-2.067-0.114-3.071,0.092c-1.562-2.854-4.561-4.656-7.859-4.656  c-3.506,0-6.667,2.053-8.122,5.19c-1.015-0.159-2.03-0.106-3.024,0.158c-3.334,0.891-5.677,3.885-5.697,7.282  c-0.021,3.617,2.459,6.669,5.899,7.438v7.29c-2.27,2.725-3.524,6.157-3.524,9.694c0,5.369,2.808,10.217,7.252,12.93v5.282  L40.192,64.208z M39.083,76.333V88H21.125v-3.791C21.125,76.375,27.499,70,35.334,70h3.374c0.457,0,0.855-0.31,0.969-0.752  l0.68-2.662l7.641,4.227l-8.398,4.646C39.28,75.635,39.083,75.97,39.083,76.333z M60.448,69.248C60.562,69.69,60.96,70,61.417,70  h3.374C72.626,70,79,76.375,79,84.209V88H41.083V76.923l18.686-10.337L60.448,69.248z M39.62,38.786h20.559  c0.337,0.422,0.648,0.861,0.929,1.317c-6.062,5.341-20.851,5.571-24.305,5.548C37.06,43.15,38.038,40.767,39.62,38.786z   M34.354,22.575c0.015-2.499,1.747-4.703,4.213-5.361c0.929-0.249,1.889-0.239,2.853,0.028c0.507,0.138,1.038-0.138,1.211-0.635  c0.974-2.795,3.613-4.674,6.567-4.674c2.419,0,4.628,1.251,5.889,3.257c-1.04,0.452-2.512,1.356-3.54,3.094  c-0.281,0.475-0.124,1.088,0.352,1.37c0.159,0.094,0.335,0.139,0.508,0.139c0.342,0,0.675-0.175,0.861-0.491  c1.233-2.084,3.336-2.539,3.44-2.561c0.017-0.003,0.03-0.015,0.047-0.019c0.018-0.004,0.037-0.001,0.055-0.006  c0.983-0.303,2.008-0.381,3.042-0.238c3.085,0.431,5.575,2.99,5.92,6.086c0.388,3.46-1.764,6.623-5.113,7.521  c-0.438,0.117-0.741,0.513-0.741,0.966v5.737H40.253v-7.635c0-0.513-0.388-0.943-0.898-0.995  C36.486,27.864,34.336,25.464,34.354,22.575z M36.755,47.654c0.19,0.002,0.402,0.004,0.655,0.004c4.449,0,18.116-0.448,24.634-5.72  c0.664,1.591,1.025,3.302,1.025,5.047c0,5.696-3.638,10.721-8.996,12.487c-4.437,1.178-8.27,0.023-8.293,0.017  C40.58,57.776,37.028,53.07,36.755,47.654z M43.98,60.945c0.387,0.164,0.783,0.315,1.188,0.448c0.117,0.037,1.99,0.609,4.707,0.609  c1.405,0,3.037-0.153,4.767-0.614c0.456-0.15,0.898-0.326,1.331-0.515v5.525l-5.918,3.274c-0.029-0.021-0.062-0.041-0.094-0.059  l-5.981-3.309V60.945z"></path></svg>