<svg xmlns="http://www.w3.org/2000/svg" xmlns:xlink="http://www.w3.org/1999/xlink" version="1.1" x="0px" y="0px" viewBox="0 0 1000 1000" style="enable-background:new 0 0 1000 1000;" xml:space="preserve"><g><g><path d="M855.7,898.6H144.3c-23.7,0-42.9-19.3-42.9-42.9V316c0-3.4,2.7-6.1,6.1-6.1h784.9c3.4,0,6.1,2.7,6.1,6.1v539.6    C898.6,879.3,879.3,898.6,855.7,898.6z M113.7,322.2v533.5c0,16.9,13.8,30.7,30.7,30.7h711.3c16.9,0,30.7-13.8,30.7-30.7V322.2    H113.7z"></path></g><g><path d="M562.5,187.3h-125c-3.4,0-6.1-2.7-6.1-6.1c0-3.4,2.7-6.1,6.1-6.1h125c3.4,0,6.1,2.7,6.1,6.1    C568.6,184.5,565.9,187.3,562.5,187.3z"></path></g><g><path d="M892.5,322.2H107.5c-3.4,0-6.1-2.7-6.1-6.1v-98.1c0-23.7,19.3-42.9,42.9-42.9h82.5c3.4,0,6.1,2.7,6.1,6.1    c0,3.4-2.7,6.1-6.1,6.1h-82.5c-16.9,0-30.7,13.8-30.7,30.7v92h772.7v-92c0-16.9-13.8-30.7-30.7-30.7h-82.5c-3.4,0-6.1-2.7-6.1-6.1    c0-3.4,2.7-6.1,6.1-6.1h82.5c23.7,0,42.9,19.3,42.9,42.9V316C898.6,319.4,895.8,322.2,892.5,322.2z"></path></g><g><path d="M730.3,187.3h-125c-3.4,0-6.1-2.7-6.1-6.1c0-3.4,2.7-6.1,6.1-6.1h125c3.4,0,6.1,2.7,6.1,6.1    C736.5,184.5,733.7,187.3,730.3,187.3z"></path></g><g><path d="M394.7,187.3h-125c-3.4,0-6.1-2.7-6.1-6.1c0-3.4,2.7-6.1,6.1-6.1h125c3.4,0,6.1,2.7,6.1,6.1    C400.8,184.5,398,187.3,394.7,187.3z"></path></g><g><g><g><path d="M269.7,224.1h-42.9c-3.4,0-6.1-2.7-6.1-6.1V107.5c0-3.4,2.7-6.1,6.1-6.1h42.9c3.4,0,6.1,2.7,6.1,6.1v110.4      C275.8,221.3,273.1,224.1,269.7,224.1z M232.9,211.8h30.6v-98.1h-30.6V211.8z"></path></g></g><g><g><path d="M437.5,224.1h-42.9c-3.4,0-6.1-2.7-6.1-6.1V107.5c0-3.4,2.7-6.1,6.1-6.1h42.9c3.4,0,6.1,2.7,6.1,6.1v110.4      C443.6,221.3,440.9,224.1,437.5,224.1z M400.8,211.8h30.6v-98.1h-30.6V211.8z"></path></g></g><g><g><path d="M605.4,224.1h-42.9c-3.4,0-6.1-2.7-6.1-6.1V107.5c0-3.4,2.7-6.1,6.1-6.1h42.9c3.4,0,6.1,2.7,6.1,6.1v110.4      C611.5,221.3,608.7,224.1,605.4,224.1z M568.6,211.8h30.6v-98.1h-30.6V211.8z"></path></g></g><g><g><path d="M773.2,224.1h-42.9c-3.4,0-6.1-2.7-6.1-6.1V107.5c0-3.4,2.7-6.1,6.1-6.1h42.9c3.4,0,6.1,2.7,6.1,6.1v110.4      C779.3,221.3,776.6,224.1,773.2,224.1z M736.5,211.8h30.6v-98.1h-30.6V211.8z"></path></g></g></g><g><path d="M274.6,477H168.9c-3.4,0-6.1-2.7-6.1-6.1V365.1c0-3.4,2.7-6.1,6.1-6.1h105.8c3.4,0,6.1,2.7,6.1,6.1v105.8    C280.8,474.3,278,477,274.6,477z M175,464.7h93.5v-93.5H175V464.7z"></path></g><g><path d="M460.1,477H354.4c-3.4,0-6.1-2.7-6.1-6.1V365.1c0-3.4,2.7-6.1,6.1-6.1h105.8c3.4,0,6.1,2.7,6.1,6.1v105.8    C466.3,474.3,463.5,477,460.1,477z M360.5,464.7H454v-93.5h-93.5V464.7z"></path></g><g><path d="M645.6,477H539.9c-3.4,0-6.1-2.7-6.1-6.1V365.1c0-3.4,2.7-6.1,6.1-6.1h105.8c3.4,0,6.1,2.7,6.1,6.1v105.8    C651.8,474.3,649,477,645.6,477z M546,464.7h93.5v-93.5H546V464.7z"></path></g><g><path d="M831.1,477H725.4c-3.4,0-6.1-2.7-6.1-6.1V365.1c0-3.4,2.7-6.1,6.1-6.1h105.8c3.4,0,6.1,2.7,6.1,6.1v105.8    C837.3,474.3,834.5,477,831.1,477z M731.5,464.7H825v-93.5h-93.5V464.7z"></path></g><g><path d="M274.6,663.3H168.9c-3.4,0-6.1-2.7-6.1-6.1V551.4c0-3.4,2.7-6.1,6.1-6.1h105.8c3.4,0,6.1,2.7,6.1,6.1v105.8    C280.8,660.5,278,663.3,274.6,663.3z M175,651h93.5v-93.5H175V651z"></path></g><g><path d="M460.1,663.3H354.4c-3.4,0-6.1-2.7-6.1-6.1V551.4c0-3.4,2.7-6.1,6.1-6.1h105.8c3.4,0,6.1,2.7,6.1,6.1v105.8    C466.3,660.5,463.5,663.3,460.1,663.3z M360.5,651H454v-93.5h-93.5V651z"></path></g><g><path d="M645.6,663.3H539.9c-3.4,0-6.1-2.7-6.1-6.1V551.4c0-3.4,2.7-6.1,6.1-6.1h105.8c3.4,0,6.1,2.7,6.1,6.1v105.8    C651.8,660.5,649,663.3,645.6,663.3z M546,651h93.5v-93.5H546V651z"></path></g><g><path d="M831.1,663.3H725.4c-3.4,0-6.1-2.7-6.1-6.1V551.4c0-3.4,2.7-6.1,6.1-6.1h105.8c3.4,0,6.1,2.7,6.1,6.1v105.8    C837.3,660.5,834.5,663.3,831.1,663.3z M731.5,651H825v-93.5h-93.5V651z"></path></g><g><path d="M274.6,849.5H168.9c-3.4,0-6.1-2.7-6.1-6.1V737.6c0-3.4,2.7-6.1,6.1-6.1h105.8c3.4,0,6.1,2.7,6.1,6.1v105.8    C280.8,846.8,278,849.5,274.6,849.5z M175,837.3h93.5v-93.5H175V837.3z"></path></g><g><path d="M460.1,849.5H354.4c-3.4,0-6.1-2.7-6.1-6.1V737.6c0-3.4,2.7-6.1,6.1-6.1h105.8c3.4,0,6.1,2.7,6.1,6.1v105.8    C466.3,846.8,463.5,849.5,460.1,849.5z M360.5,837.3H454v-93.5h-93.5V837.3z"></path></g><g><path d="M645.6,849.5H539.9c-3.4,0-6.1-2.7-6.1-6.1V737.6c0-3.4,2.7-6.1,6.1-6.1h105.8c3.4,0,6.1,2.7,6.1,6.1v105.8    C651.8,846.8,649,849.5,645.6,849.5z M546,837.3h93.5v-93.5H546V837.3z"></path></g><g><path d="M831.1,849.5H725.4c-3.4,0-6.1-2.7-6.1-6.1V737.6c0-3.4,2.7-6.1,6.1-6.1h105.8c3.4,0,6.1,2.7,6.1,6.1v105.8    C837.3,846.8,834.5,849.5,831.1,849.5z M731.5,837.3H825v-93.5h-93.5V837.3z"></path></g><g><path d="M392.5,445.3c-1.6,0-3.2-0.6-4.3-1.8l-12.8-12.8c-2.4-2.4-2.4-6.3,0-8.7c2.4-2.4,6.3-2.4,8.7,0l8.5,8.5l38-38    c2.4-2.4,6.3-2.4,8.7,0s2.4,6.3,0,8.7l-42.4,42.4C395.7,444.6,394.1,445.3,392.5,445.3z"></path></g></g></svg>