<svg xmlns="http://www.w3.org/2000/svg" xmlns:xlink="http://www.w3.org/1999/xlink" version="1.1" x="0px" y="0px" viewBox="0 0 100 100" enable-background="new 0 0 100 100" xml:space="preserve"><g><g><path d="M83,61.2c0-0.1,0-0.2,0-0.3V11.4C83,9.9,82.1,9,80.5,9H19c-0.7,0-1.2,0.2-1.5,0.5C17,10,17,10.7,17,11.2v49.7    c0,0.6,0.2,1.9,2,2.1v13.9c0,3.6,2.6,6.1,6.4,6.1H28v3.6c0,2.4,2,4.4,4.4,4.4h0.3c2.4,0,4.4-2,4.4-4.4V83h25v3.6    c0,2.4,2,4.4,4.4,4.4h0.3c2.4,0,4.4-2,4.4-4.4V83h3.1c3.3,0,6.9-2.3,6.9-6.1V63h0.1c0.5,0,1.1-0.1,1.5-0.5    C83.1,62.1,83,61.5,83,61.2z M35,86.6c0,1.3-1.1,2.4-2.4,2.4h-0.3c-1.3,0-2.4-1.1-2.4-2.4V83h5V86.6z M69,86.6    c0,1.3-1.1,2.4-2.4,2.4h-0.3c-1.3,0-2.4-1.1-2.4-2.4V83h5V86.6z M79,76.9c0,2.5-2.5,4.1-4.9,4.1H25.4c-2.6,0-4.4-1.7-4.4-4.1V63.1    c0-0.3,0-0.7,0-1.1c0.2-7.1,1.3-12.4,2.2-12.9c0.1,0,0.3-0.1,0.4-0.1H25V37c0-4.4,3.6-8,8-8h34c4.4,0,8,3.6,8,8v12h1.2    c0.1,0.1,0.3,0.1,0.5,0.2c1,0.6,2,6.6,2.3,12.8c0,0.5,0,0.8,0,1.1V76.9z M81,61L81,61c-0.3-4.5-1.1-13-3.7-13.7c0,0-0.1,0-0.1,0    c-0.1,0-0.1-0.1-0.2-0.1V37c0-5.5-4.5-10-10-10H33c-5.5,0-10,4.5-10,10v10c-0.2,0-0.3,0.1-0.5,0.2c-2.5,1.1-3.2,8.5-3.4,13.7    c-0.1,0-0.1,0-0.1-0.1V11c0,0,0,0,0,0h61.5c0.5,0,0.5,0.1,0.5,0.4V61z"></path></g><g><path d="M68,49H32v-8c0-6.6,2.1-10,6.4-10h23c4.2,0,6.6,3.6,6.6,10V49z M34,47h32v-6c0-3.6-0.8-8-4.6-8h-23c-1.1,0-4.4,0-4.4,8V47    z"></path></g><g><g><path d="M32,75.8c-3.6,0-6.5-2.9-6.5-6.5s2.9-6.5,6.5-6.5s6.5,2.9,6.5,6.5S35.6,75.8,32,75.8z M32,64.8c-2.5,0-4.5,2-4.5,4.5     s2,4.5,4.5,4.5s4.5-2,4.5-4.5S34.5,64.8,32,64.8z"></path></g><g><path d="M68,75.8c-3.6,0-6.5-2.9-6.5-6.5s2.9-6.5,6.5-6.5s6.5,2.9,6.5,6.5S71.6,75.8,68,75.8z M68,64.8c-2.5,0-4.5,2-4.5,4.5     s2,4.5,4.5,4.5s4.5-2,4.5-4.5S70.5,64.8,68,64.8z"></path></g></g><g><path d="M56,62H44c-1.7,0-3,1.3-3,3v10c0,1.6,1.3,3,3,3h12c1.7,0,3-1.4,3-3V65C59,63.3,57.7,62,56,62z M43,65c0-0.5,0.5-1,1-1h12    c0.5,0,1,0.5,1,1v1H43V65z M57,75c0,0.5-0.5,1-1,1H44c-0.5,0-1-0.5-1-1v-1h14V75z M57,72H43v-1h14V72z M57,69H43v-1h14V69z"></path></g></g></svg>