<svg xmlns="http://www.w3.org/2000/svg" xmlns:xlink="http://www.w3.org/1999/xlink" version="1.1" x="0px" y="0px" viewBox="0 0 100 100" enable-background="new 0 0 100 100" xml:space="preserve"><g><polygon fill="none" points="82.049,36.939 68.164,26.658 62.779,22.671 62.779,40.151  "></polygon><polygon fill="none" points="60.572,20.2 54.369,6.89 7.801,14.445 14.252,27.844  "></polygon><polygon fill="none" points="60.986,21.949 33.054,26.558 15.692,29.424 21.438,34.728 32.737,45.158 48.691,42.499 60.986,40.45     "></polygon><polygon fill="none" points="31.462,46.42 22.827,38.45 14.158,30.448 7.416,51.334 26.351,68.642  "></polygon><polygon fill="none" points="63.061,20.65 84.039,36.182 92.369,23.03 69.706,9.24  "></polygon><path fill="none" d="M31.556,54.01l-3.802,16.531c-0.071,0.31-0.303,0.56-0.607,0.655c-0.088,0.027-0.177,0.041-0.267,0.041   c-0.221,0-0.437-0.081-0.605-0.235L14.632,60.358v16.55l16.924,15.187V54.01z"></path><polygon fill="none" points="80.874,38.952 62.03,42.093 62.027,42.093 58.374,42.702 33.648,46.823 41.571,69.599 84.099,61.844    84.102,61.843 90.005,60.767 83.639,38.491  "></polygon><path fill="none" d="M40.976,71.515c-0.375,0-0.719-0.236-0.846-0.602l-6.782-19.495v41.599l50.036-9.729V63.796L41.138,71.5   C41.084,71.51,41.03,71.515,40.976,71.515z"></path><path d="M94.487,22.534c-0.055-0.234-0.201-0.436-0.407-0.561L69.858,7.234c-0.206-0.126-0.454-0.163-0.686-0.103   c-0.233,0.059-0.433,0.21-0.554,0.418L61.971,18.96L55.707,5.518c-0.17-0.363-0.56-0.57-0.956-0.506L6.33,12.868   c-0.279,0.045-0.52,0.219-0.651,0.47c-0.131,0.251-0.135,0.548-0.013,0.803l7.107,14.763l-7.24,22.427   c-0.108,0.334-0.011,0.7,0.248,0.937l7.058,6.452v18.589c0,0.254,0.108,0.497,0.298,0.667l18.716,16.795   c0.004,0.003,0.008,0.004,0.012,0.007c0.006,0.005,0.011,0.012,0.017,0.017c0.053,0.043,0.114,0.069,0.174,0.099   c0.03,0.015,0.056,0.038,0.087,0.049C32.241,94.98,32.346,95,32.452,95c0,0,0,0,0,0c0,0,0,0,0,0c0.001,0,0.002,0,0.003,0   c0.056,0,0.112-0.005,0.167-0.016l51.829-10.077c0.421-0.082,0.725-0.451,0.725-0.88V63.469l6.122-1.116   c0.249-0.045,0.467-0.194,0.6-0.409c0.134-0.215,0.17-0.476,0.101-0.719l-6.747-23.609l9.119-14.398   C94.5,23.014,94.542,22.768,94.487,22.534z M32.737,45.158l-11.3-10.43l-5.746-5.304l17.363-2.865l27.932-4.61V40.45l-12.296,2.049   L32.737,45.158z M68.164,26.658l13.885,10.281l-19.27,3.212V22.671L68.164,26.658z M54.369,6.89L60.572,20.2l-46.32,7.644   L7.801,14.445L54.369,6.89z M14.158,30.448l8.67,8.002l8.635,7.97l-5.111,22.222L7.416,51.334L14.158,30.448z M14.632,60.358   l11.644,10.643c0.168,0.153,0.384,0.235,0.605,0.235c0.089,0,0.179-0.013,0.267-0.041c0.304-0.095,0.535-0.344,0.607-0.655   l3.802-16.531v38.085L14.632,76.909V60.358z M83.384,83.288l-50.036,9.729V51.418l6.782,19.495   c0.127,0.366,0.471,0.602,0.846,0.602c0.053,0,0.107-0.005,0.161-0.015l42.246-7.704V83.288z M84.102,61.843   c-0.001,0-0.002,0-0.003,0.001l-42.527,7.756l-7.924-22.776l24.727-4.121l3.653-0.609c0.001,0,0.002,0,0.003,0l18.844-3.141   l2.764-0.461l6.366,22.275L84.102,61.843z M84.039,36.182L63.061,20.65l6.645-11.41l22.662,13.79L84.039,36.182z"></path></g></svg>