<svg xmlns="http://www.w3.org/2000/svg" xmlns:xlink="http://www.w3.org/1999/xlink" version="1.1" x="0px" y="0px" viewBox="0 0 100 100" enable-background="new 0 0 100 100" xml:space="preserve"><g><g><path fill="none" d="M64.502,60.006c1.043-1.704,1.841-2.909,1.034-4.446c-1.708-0.149-3.309-0.829-5.121,0.251    c-0.191,1.073-0.41,2.299-0.674,3.782C61.456,59.743,62.892,59.868,64.502,60.006z"></path><path fill="none" d="M66.911,53.008c0.431-1.953,0.847-3.849,1.377-6.252c-2.619-0.225-4.392-0.376-6.127,0.413    c-0.701,1.781-1.153,3.507-0.81,5.435C63.128,53.439,64.849,53.557,66.911,53.008z"></path><path fill="none" d="M68.388,43.837c0.795-2.007,0.757-3.874,0.446-5.979c-2.352-0.105-4.418-0.644-6.483,0.731    c0,1.815,0,3.588,0,5.846C64.675,44.659,66.578,44.732,68.388,43.837z"></path><path fill="none" d="M52.453,55.196c-0.18,1.213-0.333,2.242-0.514,3.461c1.767,0.284,3.179,0.514,4.883,0.791    c0.458-1.311,0.857-2.455,1.486-4.252C55.874,55.196,54.292,55.196,52.453,55.196z"></path><path fill="none" d="M59.694,62.08c-0.56,0.067-1.234,0.975-1.462,1.635c-0.341,0.996,0.516,1.523,1.349,1.559    c1.104,0.044,2.267-0.024,3.322-0.332c1.107-0.322,1.346-1.288,0.868-2.688C62.495,62.174,61.07,61.915,59.694,62.08z"></path><path fill="none" d="M60.065,38.037c-1.894-0.433-3.616-0.602-5.592,0.081c-0.095,1.727-0.185,3.325-0.303,5.457    c2.058,0.361,3.667,0.643,5.363,0.942C60.411,42.325,60.624,40.299,60.065,38.037z"></path><path fill="none" d="M44.863,44.018c0-1.643,0-3.223,0-4.973c-1.863,0-3.458,0-5.415,0c-0.776,2.169-0.841,3.853-0.348,5.76    C41.245,44.955,43.165,45.561,44.863,44.018z"></path><path fill="none" d="M49.952,55.249c-4.455-0.78-4.455-0.78-4.447,3.08C49.344,58.911,49.344,58.911,49.952,55.249z"></path><path fill="none" d="M58.889,52.32c0.224-1.577,0.47-3.317,0.733-5.178c-1.852-0.878-3.456-1.508-5.33-1.067    c-0.991,2.164-1.3,4.198-1.076,6.592C55.131,52.998,56.851,53.471,58.889,52.32z"></path><path fill="none" d="M52.07,43.727c0.283-1.969,0.752-3.685,0.079-5.517c-1.824-0.46-3.313-0.025-4.923,0.954    c0.062,1.697-0.678,3.48,0.619,5.409C49.175,44.308,50.572,44.028,52.07,43.727z"></path><path fill="none" d="M51.173,51.941c-0.39-1.829,1.334-3.595,0.06-5.856c-1.415,0.257-2.82,0.51-4.426,0.8    c-0.248,1.781-0.471,3.379-0.69,4.957C47.852,52.943,49.341,53.081,51.173,51.941z"></path><path fill="none" d="M71.01,14.677c-0.032-0.2-0.063-0.403-0.095-0.603c-0.136,0.046-0.273,0.094-0.409,0.142    c0.022,0.121,0.002,0.3,0.075,0.357C70.689,14.651,70.863,14.645,71.01,14.677z"></path><path fill="none" d="M61.38,14.305c-0.028-0.098-0.025-0.248-0.09-0.286c-0.11-0.063-0.262-0.06-0.395-0.084    c0.036,0.165,0.072,0.332,0.109,0.497C61.129,14.391,61.255,14.346,61.38,14.305z"></path><path fill="none" d="M50.769,13.226c-0.258-0.167-0.515-0.33-0.899-0.576c-0.327,0.176-0.717,0.387-1.108,0.595    c0.34,0.237,0.681,0.657,1.019,0.657C50.111,13.902,50.44,13.467,50.769,13.226z"></path><path fill="none" d="M44.012,51.569c0-1.354,0-2.771,0-4.35c-1.91-0.441-3.637-0.414-5.631,0.203    c-0.157,1.499-0.306,2.909-0.5,4.77C40.096,52.284,41.954,53.014,44.012,51.569z"></path><path fill="none" d="M28.216,14.332c-0.37-0.516-0.52-0.948-0.739-0.989c-0.569-0.098-1.178-0.086-1.744,0.022    c-0.174,0.032-0.26,0.524-0.388,0.803c0.552,0.176,1.094,0.41,1.659,0.505C27.281,14.72,27.6,14.516,28.216,14.332z"></path><path fill="none" d="M49.626,65.547c5.163,0.232,5.163,0.232,6.445-3.488C50.587,60.684,50.517,60.729,49.626,65.547z"></path><path fill="none" d="M31.317,26.724c3.158-0.051,6.341-0.035,9.463-0.432c10.958-1.397,21.892-1.264,32.84,0.048    c1.746,0.21,3.559,0.711,5.236,0.006c0.638-4.131,0.638-4.131-0.196-7.469c-6.025-1.389-6.329-1.397-9.076-0.16    c1.062,1.088,2.067,2.113,3.548,3.626c-4.781,1.423-5.705-2.386-7.633-4.517c-3.879-0.63-3.879-0.63-6.08,0.243    c1.411,1.971,1.411,1.971,4.094,3.577c-0.585,0.427-1.025,0.959-1.566,1.102c-1.612,0.421-3.017-0.184-3.979-1.45    c-0.983-1.296-1.742-2.758-2.68-4.276c-2.362-0.143-4.762-0.378-7.692,0.108c0.68,0.926,0.986,1.469,1.412,1.889    c0.585,0.581,1.336,1.005,1.869,1.626c0.266,0.306,0.4,1.216,0.263,1.299c-0.496,0.294-1.272,0.642-1.688,0.445    c-1.18-0.565-2.361-1.258-3.302-2.153c-0.942-0.899-1.596-2.102-2.36-3.15c-5.417-0.422-5.417-0.422-8.101,0.641    c-0.052,2.237,2.515,2.868,3.284,5.116c-1.023,0.124-1.983,0.543-2.443,0.232c-1.2-0.818-2.287-1.87-3.217-2.998    c-0.703-0.851-1.096-1.956-1.645-2.98c-2.276,0.245-4.401-0.252-6.746,1.227c1.316,0.93,2.263,1.527,3.114,2.232    c0.42,0.349,0.664,0.911,1.14,1.592c-4.499,1.453-5.815-1.975-7.935-4.396c-1.155,0.067-2.402,0.133-3.82,0.213    c-0.159,3.058-0.63,5.809,0.32,8.772C22.381,26.739,26.849,26.791,31.317,26.724z"></path><path fill="none" d="M43.147,65.501c1.332,0.084,2.265,0.137,3.437,0.208c0.579-1.362,1.123-2.644,1.696-3.992    C44.347,60.921,44.347,60.921,43.147,65.501z"></path><path fill="none" d="M34.507,64.461c0.819,0.149,1.608,0.378,2.406,0.421c1.294,0.072,2.593,0.019,3.977,0.019    c0.224-1.056,0.388-1.846,0.666-3.158c-1.677-0.178-2.805-0.372-3.936-0.397C35.581,61.292,35.541,61.372,34.507,64.461z"></path><path fill="none" d="M28.158,64.117c4.519,1.075,4.833,0.859,4.304-2.977C28.698,60.586,28.698,60.586,28.158,64.117z"></path><path fill="none" d="M38.322,13.457c-0.229-0.146-0.449-0.317-0.699-0.419c-0.061-0.025-0.216,0.187-0.33,0.289    c0.23,0.146,0.458,0.289,0.688,0.432C38.094,13.66,38.207,13.556,38.322,13.457z"></path><path fill="none" d="M80.078,60.61c-0.257-0.038-0.514-0.076-0.773-0.117c-0.779,3.195-1.388,6.441-2.387,9.564    c-0.962,3.007-0.936,6.708-4.717,8.131c-0.105,0.04-0.168,0.281-0.188,0.435c-0.233,1.667-1.461,2.082-2.853,2.234    c-5.438,0.6-10.866,1.447-16.319,1.699c-8.124,0.378-16.265,0.353-24.4,0.432c-0.92,0.009-1.843-0.4-2.852-0.635    c-0.217-1.997-0.411-3.76-0.603-5.52c-1.789-0.503-3.352-0.91-5.26-0.246c0.394,3.728,0.057,7.361,1.412,10.89    c0.736,0.097,1.382,0.256,2.029,0.252c18.275-0.011,36.548-0.035,54.822-0.092c0.941,0,1.882-0.311,2.943-0.5    c-0.295-4.514-0.688-8.802-0.823-13.099C79.969,69.566,80.078,65.087,80.078,60.61z"></path><path fill="none" d="M27.451,81.114c1.562-0.238,2.8-0.426,4.294-0.653c-0.171-1.494-0.312-2.723-0.477-4.174    c-1.393,0.121-2.489,0.219-4.219,0.371C27.204,78.368,27.315,79.605,27.451,81.114z"></path><path fill="none" d="M34.469,80.552c1.239-0.143,2.617-0.308,4.131-0.486c0.168-1.724,0.477-3.121-1.036-4.511    c-1.202,0.122-2.594,0.26-3.911,0.392C33.135,77.719,33.277,79.075,34.469,80.552z"></path><path fill="none" d="M41.18,80.085c1.41-0.076,2.613-0.143,3.984-0.216c-0.097-1.429-0.171-2.523-0.289-4.277    c-1.678,0.076-2.894,0.133-4.385,0.2C40.741,77.357,40.937,78.576,41.18,80.085z"></path><path fill="none" d="M47.299,76.039c0,1.137-0.094,1.807,0.026,2.44c0.117,0.606,0.456,1.168,0.756,1.886    c2.097,0,4.064,0.062,6.026-0.024c1.115-0.048,1.561-0.77,1.406-2.102c-0.054-0.464-0.363-0.899-0.61-1.475    C52.514,76.531,50.17,75.649,47.299,76.039z"></path><path fill="none" d="M84.756,22.92c-0.03-0.478-0.674-0.915-1.216-1.594c-1.6,10.4-1.565,58.387,0.015,65.494    c0.047,0.21,0.488,0.33,1.029,0.67c0.096-0.875,0.283-1.618,0.239-2.347c-0.153-2.65-0.52-5.293-0.565-7.945    c-0.279-16.274-0.29-32.548,0.52-48.81C84.869,26.569,84.875,24.735,84.756,22.92z"></path><path fill="none" d="M57.52,76.89c-0.065,1.892,0.401,2.842,1.854,2.883c0.971,0.027,1.969-0.041,2.913-0.251    c0.32-0.073,0.768-0.759,0.707-1.08c-0.106-0.554-0.513-1.438-0.88-1.485C60.697,76.784,59.245,76.89,57.52,76.89z"></path><path fill="none" d="M89.848,26.534c0,1.912,0,3.56,0,5.205c-0.013,15.309-0.035,30.615-0.026,45.92    c0.002,2.661,0.106,5.322,0.235,7.98c0.027,0.578,0.359,1.14,0.522,1.629c1.334,0.01,1.71-0.8,1.798-1.599    c0.146-1.316,0.089-2.656,0.089-3.987c0.015-15.474,0.013-30.946,0.045-46.42c0.004-2.161,0.22-4.317,0.215-6.48    C92.723,27.471,91.999,26.64,89.848,26.534z"></path><path fill="none" d="M41.026,59.154c1.108-0.114,1.777-0.813,1.931-1.926c0.09-0.646,0.109-1.305,0.196-2.439    c-2.189-0.483-3.941-0.591-5.912,0.064c-0.257,1.215-0.52,2.458-0.766,3.617C38.059,59.517,39.559,59.305,41.026,59.154z"></path><path fill="none" d="M87.271,23.1c-0.306,0.113-0.61,0.227-0.915,0.345c-0.082,0.621-0.23,1.238-0.237,1.861    c-0.23,17.757-0.834,35.517-0.187,53.279c0.078,2.155,0.153,4.311,0.268,6.467c0.035,0.654,0.189,1.313,1.429,1.276    c0.079-0.856,0.229-1.75,0.233-2.642c0.009-3.153-0.166-6.313-0.029-9.458c0.709-16.247-0.392-32.525,0.768-48.767    C88.656,24.711,87.737,23.886,87.271,23.1z"></path><path fill="none" d="M29.838,43.605c0.085-1.819,0.183-3.287,0.195-4.752c0.003-0.251-0.357-0.506-0.711-0.973    c-1.141,0.256-2.391,0.533-3.562,0.791C25.383,43.062,25.383,43.062,29.838,43.605z"></path><path fill="none" d="M33.509,58.695c0.39-0.476,0.676-0.689,0.776-0.965c1.084-3.028,0.839-3.48-2.159-3.776    c-0.587-0.057-1.207,0.207-1.931,0.345c-0.18,1.396-0.34,2.629-0.537,4.155C31.2,58.553,32.441,58.63,33.509,58.695z"></path><path fill="none" d="M65.452,77.152c0.622,2.367,0.628,2.386,3.649,0.78C68.122,76.263,66.796,76.789,65.452,77.152z"></path><path fill="none" d="M36.692,44.143c0.083-1.542,0.168-3.149,0.281-5.26c-1.812-0.214-3.092-0.365-4.516-0.532    c-0.614,2.066-0.956,3.933-0.38,5.828C33.656,44.885,35.04,45.12,36.692,44.143z"></path><path fill="none" d="M35.349,51.837c0.857-1.613,1.048-3.101,0.391-4.92c-1.441,0-2.813,0-4.431,0    c-0.141,1.626-0.259,3.017-0.392,4.565c1.024,0.227,1.782,0.473,2.555,0.541C34.081,52.077,34.706,51.909,35.349,51.837z"></path><path fill="none" d="M28.656,50.631c0.405-1.464,0.942-2.961,0.1-4.67c-0.988-0.318-2.019-0.646-3.342-1.069    c-0.406,1.681-0.735,3.044-1.014,4.206C25.547,50.745,26.842,51.106,28.656,50.631z"></path><path fill="none" d="M33.453,73.153c4.614-0.4,9.291-0.238,13.935-0.098c3.815,0.114,7.618,0.6,11.433,0.832    c2.156,0.132,4.323,0.044,6.483,0.132c2.293,0.09,4.585,0.275,6.775,0.411c4.745-10.663,8.142-34.031,6.548-44.733    c-0.743-0.221-1.519-0.584-2.325-0.68c-10.912-1.276-21.837-2.135-32.81-0.652c-1.809,0.243-3.643,0.373-5.469,0.399    c-5.652,0.089-11.305,0.095-16.959,0.145c-1.122,0.008-2.242,0.052-3.176,0.078c-0.325,0.626-0.581,0.899-0.603,1.188    c-0.397,5.3-0.828,10.595-1.126,15.898c-0.473,8.399-2.183,16.46-6.14,23.959c-0.432,0.821-0.701,1.724-1.22,3.026    c1.38,0.183,2.309,0.386,3.244,0.414c2.991,0.1,5.987,0.086,8.976,0.207C25.182,73.845,29.302,73.513,33.453,73.153z     M17.391,65.817c0.291-3.617,2.4-6.373,3.172-9.547c0.746-3.063,1.601-6.113,2.096-9.22c0.522-3.258,0.674-6.575,0.988-9.863    c3.573-1.681,7.204-1.781,10.837-1.076c4.317,0.838,8.575,0.592,12.901,0.105c3.951-0.445,7.947-0.497,11.926-0.664    c2.492-0.105,4.986-0.13,7.481-0.143c3.537-0.019,4.453,0.784,4.296,4.436c-0.144,3.312-0.399,6.665-1.102,9.895    c-1.128,5.186-2.667,10.284-4.031,15.42c-0.447,1.693-1.62,2.434-3.289,2.493c-1.162,0.041-2.328-0.021-3.489,0.045    c-2.316,0.13-4.627,0.343-6.944,0.455c-1.98,0.1-3.975,0.275-5.943,0.126c-3.476-0.264-6.932-0.778-10.403-1.124    c-4.458-0.448-8.973-0.133-13.39-1.273C20.976,65.487,19.267,65.817,17.391,65.817z"></path><path fill="none" d="M25.653,60.794c-1.276,0-2.682,0-4.15,0c-0.288,0.905-0.525,1.645-0.872,2.732    c1.787,0.129,3.337,0.243,4.669,0.341C26.118,62.721,26.564,61.9,25.653,60.794z"></path><path fill="none" d="M26.763,58.515c1.225-1.564,1.546-3.091,1.134-5.038c-1.03-0.464-2.166-0.972-3.477-1.561    c-1.075,1.967-1.264,3.947-1.724,5.835c-0.053,0.213,0.228,0.508,0.452,0.965C24.337,58.65,25.611,58.58,26.763,58.515z"></path><path d="M94.988,80.894c0.007-15.652-0.018-31.3-0.04-46.949c-0.002-1.334-0.04-2.664-0.091-3.995    c-0.08-2.086-0.728-3.915-2.472-5.221c-2.5-1.874-4.169-4.836-7.454-5.678c-1.896-2.763-4.74-3.436-7.876-3.429    c-0.638-0.851-1.148-1.716-1.833-2.407c-2.858-2.896-5.517-2.782-8.471,0.268c-0.332,0.346-0.753,0.607-1.133,0.905    c-0.248-0.313-0.456-0.551-0.64-0.808c-2.72-3.788-4.84-3.992-7.889-0.714c-0.559,0.597-0.961,1.368-2.305,1.143    c-0.299-0.505-0.647-1.227-1.113-1.861c-2.216-3.007-4.991-3.277-7.563-0.714c-0.679,0.675-1.225,1.483-1.96,2.394    c-0.707-0.492-1.241-0.829-1.739-1.213c-0.525-0.406-0.984-0.908-1.531-1.283c-2.555-1.734-4.466-1.624-6.738,0.427    c-0.608,0.551-1.075,1.257-1.772,2.089c-0.646-0.516-1.263-1.018-1.892-1.507c-0.654-0.506-1.273-1.092-1.995-1.48    c-2.059-1.116-3.836-0.759-5.298,1.111c-0.701,0.899-1.204,1.956-1.816,2.972c-1.808,0.321-3.565,0.632-5.361,0.946    c-0.968,2.226-0.874,4.403-0.963,6.545c-0.298,7.153-0.507,14.309-0.911,21.449c-0.571,10.106-2.759,19.759-8.352,28.412    C5.306,73.035,5.282,74.067,5,75.144c4.18,1.159,8.224,0.203,12.149,0.937c1.671,4.404,0.319,9.133,2.141,13.272    c1.593,0.97,3.286,0.729,4.932,0.732c5.661,0.014,11.322,0.01,16.982,0.014c5.494,0.005,10.988,0.011,16.482,0.027    c5.661,0.016,11.335-0.187,16.978,0.14c5.642,0.327,11.212-1.156,16.858-0.337c0.841,0.121,1.805-0.597,2.618-0.894    C95.169,86.223,94.987,83.54,94.988,80.894z M70.914,14.073c0.032,0.2,0.064,0.403,0.095,0.603    c-0.147-0.032-0.321-0.025-0.429-0.105c-0.073-0.057-0.053-0.237-0.075-0.357C70.641,14.167,70.778,14.12,70.914,14.073z     M61.29,14.019c0.064,0.038,0.062,0.187,0.09,0.286c-0.125,0.041-0.252,0.086-0.376,0.127c-0.036-0.165-0.073-0.332-0.109-0.497    C61.029,13.959,61.181,13.956,61.29,14.019z M49.87,12.649c0.383,0.246,0.641,0.41,0.899,0.576    c-0.329,0.241-0.657,0.676-0.987,0.676c-0.338,0-0.68-0.421-1.019-0.657C49.153,13.036,49.543,12.826,49.87,12.649z     M37.623,13.038c0.249,0.102,0.47,0.273,0.699,0.419c-0.114,0.099-0.227,0.203-0.341,0.302c-0.229-0.143-0.458-0.286-0.688-0.432    C37.407,13.226,37.562,13.013,37.623,13.038z M25.733,13.365c0.566-0.108,1.176-0.121,1.744-0.022    c0.219,0.041,0.369,0.473,0.739,0.989c-0.617,0.184-0.936,0.387-1.212,0.341c-0.565-0.095-1.107-0.329-1.659-0.505    C25.473,13.889,25.559,13.397,25.733,13.365z M17.422,17.966c1.418-0.079,2.665-0.146,3.82-0.213    c2.12,2.421,3.437,5.849,7.935,4.396c-0.476-0.681-0.72-1.243-1.14-1.592c-0.851-0.705-1.797-1.302-3.114-2.232    c2.344-1.48,4.47-0.983,6.746-1.227c0.549,1.024,0.942,2.129,1.645,2.98c0.93,1.127,2.016,2.18,3.217,2.998    c0.46,0.311,1.42-0.108,2.443-0.232c-0.769-2.248-3.336-2.878-3.284-5.116c2.683-1.064,2.683-1.064,8.101-0.641    c0.764,1.048,1.418,2.251,2.36,3.15c0.941,0.895,2.122,1.588,3.302,2.153c0.417,0.197,1.192-0.151,1.688-0.445    c0.137-0.082,0.003-0.992-0.263-1.299c-0.533-0.621-1.284-1.045-1.869-1.626c-0.426-0.421-0.732-0.964-1.412-1.889    c2.93-0.486,5.331-0.251,7.692-0.108c0.938,1.518,1.697,2.98,2.68,4.276c0.962,1.265,2.367,1.87,3.979,1.45    c0.541-0.143,0.98-0.675,1.566-1.102c-2.683-1.607-2.683-1.607-4.094-3.577c2.201-0.873,2.201-0.873,6.08-0.243    c1.927,2.131,2.852,5.94,7.633,4.517c-1.48-1.513-2.485-2.539-3.548-3.626c2.747-1.237,3.052-1.229,9.076,0.16    c0.834,3.338,0.834,3.338,0.196,7.469c-1.677,0.705-3.491,0.203-5.236-0.006c-10.948-1.312-21.882-1.445-32.84-0.048    c-3.121,0.397-6.305,0.381-9.463,0.432c-4.467,0.067-8.936,0.014-13.575,0.014C16.792,23.776,17.263,21.024,17.422,17.966z     M12.041,73.47c-0.934-0.028-1.863-0.232-3.244-0.414c0.519-1.302,0.788-2.205,1.22-3.026c3.957-7.499,5.666-15.56,6.14-23.959    c0.298-5.303,0.73-10.598,1.126-15.898c0.021-0.289,0.277-0.562,0.603-1.188c0.934-0.025,2.055-0.07,3.176-0.078    c5.654-0.049,11.307-0.056,16.959-0.145c1.826-0.025,3.66-0.156,5.469-0.399c10.974-1.483,21.898-0.624,32.81,0.652    c0.807,0.095,1.582,0.459,2.325,0.68c1.594,10.701-1.803,34.069-6.548,44.733c-2.189-0.137-4.481-0.321-6.775-0.411    c-2.159-0.088-4.327,0-6.483-0.132c-3.815-0.232-7.617-0.718-11.433-0.832c-4.643-0.14-9.321-0.302-13.935,0.098    c-4.15,0.36-8.27,0.692-12.436,0.524C18.028,73.556,15.031,73.57,12.041,73.47z M69.101,77.932    c-3.021,1.607-3.027,1.588-3.649-0.78C66.796,76.789,68.122,76.263,69.101,77.932z M62.993,78.443    c0.061,0.321-0.387,1.007-0.707,1.08c-0.944,0.21-1.942,0.278-2.913,0.251c-1.453-0.041-1.919-0.991-1.854-2.883    c1.725,0,3.176-0.106,4.593,0.068C62.48,77.005,62.888,77.889,62.993,78.443z M54.106,80.342    c-1.962,0.086-3.928,0.024-6.026,0.024c-0.299-0.718-0.639-1.28-0.756-1.886c-0.121-0.634-0.026-1.304-0.026-2.44    c2.871-0.391,5.216,0.492,7.603,0.726c0.248,0.576,0.556,1.011,0.61,1.475C55.667,79.572,55.221,80.294,54.106,80.342z     M45.163,79.869c-1.371,0.073-2.574,0.14-3.984,0.216c-0.242-1.508-0.439-2.728-0.691-4.293c1.491-0.067,2.707-0.124,4.385-0.2    C44.992,77.346,45.066,78.44,45.163,79.869z M38.599,80.066c-1.513,0.178-2.892,0.343-4.131,0.486    c-1.192-1.477-1.334-2.833-0.816-4.604c1.316-0.132,2.709-0.27,3.911-0.392C39.076,76.944,38.768,78.341,38.599,80.066z     M31.745,80.461c-1.494,0.227-2.732,0.414-4.294,0.653c-0.136-1.508-0.247-2.745-0.402-4.455c1.73-0.152,2.825-0.251,4.219-0.371    C31.433,77.738,31.574,78.967,31.745,80.461z M77.989,87.636c-18.274,0.057-36.547,0.081-54.822,0.092    c-0.647,0.003-1.293-0.156-2.029-0.252c-1.355-3.53-1.018-7.162-1.412-10.89c1.908-0.664,3.471-0.257,5.26,0.246    c0.191,1.761,0.385,3.523,0.603,5.52c1.008,0.235,1.931,0.645,2.852,0.635c8.135-0.079,16.277-0.054,24.4-0.432    c5.454-0.252,10.881-1.099,16.319-1.699c1.392-0.152,2.621-0.567,2.853-2.234c0.021-0.154,0.083-0.395,0.188-0.435    c3.781-1.423,3.755-5.124,4.717-8.131c0.999-3.123,1.608-6.37,2.387-9.564c0.259,0.041,0.516,0.079,0.773,0.117    c0,4.477-0.11,8.956,0.031,13.427c0.135,4.296,0.528,8.585,0.823,13.099C79.871,87.325,78.929,87.636,77.989,87.636z     M84.258,77.198c0.045,2.652,0.412,5.295,0.565,7.945c0.045,0.729-0.143,1.472-0.239,2.347c-0.541-0.34-0.982-0.46-1.029-0.67    c-1.58-7.107-1.615-55.094-0.015-65.494c0.542,0.679,1.186,1.116,1.216,1.594c0.118,1.815,0.113,3.649,0.022,5.468    C83.968,44.65,83.978,60.924,84.258,77.198z M87.835,74.228c-0.137,3.145,0.038,6.305,0.029,9.458    c-0.004,0.892-0.154,1.786-0.233,2.642c-1.24,0.037-1.394-0.622-1.429-1.276c-0.115-2.156-0.191-4.312-0.268-6.467    c-0.647-17.762-0.044-35.522,0.187-53.279c0.007-0.622,0.156-1.24,0.237-1.861c0.305-0.118,0.609-0.232,0.915-0.345    c0.466,0.786,1.385,1.612,1.332,2.361C87.443,41.703,88.544,57.98,87.835,74.228z M92.511,35.262    c-0.031,15.474-0.029,30.946-0.045,46.42c0,1.331,0.057,2.671-0.089,3.987c-0.088,0.799-0.464,1.608-1.798,1.599    c-0.163-0.489-0.495-1.051-0.522-1.629c-0.129-2.658-0.233-5.319-0.235-7.98c-0.009-15.306,0.013-30.611,0.026-45.92    c0-1.645,0-3.293,0-5.205c2.15,0.106,2.875,0.937,2.878,2.248C92.731,30.945,92.515,33.101,92.511,35.262z"></path><path d="M35.888,67.154c3.471,0.346,6.926,0.861,10.403,1.124c1.968,0.149,3.963-0.025,5.943-0.126    c2.316-0.113,4.628-0.325,6.944-0.455c1.161-0.065,2.327-0.003,3.489-0.045c1.669-0.059,2.842-0.8,3.289-2.493    c1.364-5.136,2.903-10.234,4.031-15.42c0.703-3.229,0.958-6.583,1.102-9.895c0.158-3.652-0.759-4.455-4.296-4.436    c-2.495,0.013-4.99,0.038-7.481,0.143c-3.979,0.167-7.975,0.219-11.926,0.664c-4.327,0.487-8.584,0.734-12.901-0.105    c-3.633-0.705-7.264-0.605-10.837,1.076c-0.314,3.288-0.465,6.605-0.988,9.863c-0.495,3.107-1.35,6.157-2.096,9.22    c-0.772,3.174-2.881,5.93-3.172,9.547c1.876,0,3.585-0.33,5.106,0.064C26.915,67.021,31.429,66.707,35.888,67.154z M28.158,64.117    c0.54-3.531,0.54-3.531,4.304-2.977C32.991,64.976,32.676,65.192,28.158,64.117z M40.891,64.901c-1.384,0-2.683,0.053-3.977-0.019    c-0.799-0.043-1.587-0.271-2.406-0.421c1.034-3.09,1.074-3.169,3.113-3.115c1.131,0.025,2.259,0.219,3.936,0.397    C41.279,63.055,41.114,63.845,40.891,64.901z M46.584,65.709c-1.172-0.071-2.105-0.124-3.437-0.208    c1.2-4.581,1.2-4.581,5.133-3.784C47.707,63.066,47.164,64.347,46.584,65.709z M49.626,65.547c0.891-4.819,0.96-4.863,6.445-3.488    C54.79,65.779,54.79,65.779,49.626,65.547z M51.939,58.657c0.181-1.219,0.334-2.248,0.514-3.461c1.839,0,3.421,0,5.855,0    c-0.629,1.797-1.028,2.94-1.486,4.252C55.118,59.171,53.706,58.941,51.939,58.657z M62.903,64.943    c-1.054,0.308-2.217,0.376-3.322,0.332c-0.833-0.036-1.69-0.564-1.349-1.559c0.227-0.66,0.901-1.569,1.462-1.635    c1.376-0.165,2.801,0.094,4.076,0.175C64.248,63.655,64.009,64.62,62.903,64.943z M62.351,38.588    c2.065-1.375,4.13-0.835,6.483-0.731c0.31,2.106,0.349,3.973-0.446,5.979c-1.81,0.896-3.712,0.822-6.036,0.597    C62.351,42.176,62.351,40.403,62.351,38.588z M62.161,47.168c1.735-0.789,3.508-0.638,6.127-0.413    c-0.53,2.404-0.945,4.299-1.377,6.252c-2.062,0.549-3.783,0.432-5.56-0.405C61.008,50.675,61.459,48.949,62.161,47.168z     M65.535,55.561c0.807,1.537,0.009,2.742-1.034,4.446c-1.61-0.138-3.046-0.264-4.761-0.413c0.264-1.483,0.483-2.709,0.674-3.782    C62.226,54.732,63.827,55.411,65.535,55.561z M54.473,38.118c1.976-0.683,3.698-0.514,5.592-0.081    c0.56,2.263,0.346,4.288-0.532,6.479c-1.696-0.298-3.305-0.581-5.363-0.942C54.288,41.443,54.378,39.845,54.473,38.118z     M54.292,46.076c1.874-0.441,3.478,0.189,5.33,1.067c-0.264,1.861-0.51,3.601-0.733,5.178c-2.038,1.151-3.758,0.678-5.673,0.348    C52.992,50.274,53.301,48.24,54.292,46.076z M47.227,39.164c1.61-0.98,3.099-1.415,4.923-0.954    c0.672,1.832,0.203,3.549-0.079,5.517c-1.499,0.3-2.896,0.581-4.225,0.846C46.549,42.645,47.289,40.862,47.227,39.164z     M46.807,46.885c1.606-0.29,3.011-0.543,4.426-0.8c1.273,2.261-0.45,4.027-0.06,5.856c-1.831,1.14-3.321,1.002-5.055-0.099    C46.336,50.264,46.56,48.667,46.807,46.885z M49.952,55.249c-0.607,3.661-0.607,3.661-4.447,3.08    C45.497,54.47,45.497,54.47,49.952,55.249z M39.448,39.045c1.957,0,3.552,0,5.415,0c0,1.75,0,3.33,0,4.973    c-1.698,1.543-3.618,0.937-5.763,0.788C38.607,42.898,38.673,41.214,39.448,39.045z M38.381,47.422    c1.994-0.618,3.721-0.645,5.631-0.203c0,1.58,0,2.996,0,4.35c-2.058,1.445-3.916,0.715-6.131,0.623    C38.076,50.331,38.224,48.921,38.381,47.422z M43.153,54.789c-0.087,1.134-0.106,1.792-0.196,2.439    c-0.155,1.113-0.823,1.812-1.931,1.926c-1.466,0.151-2.967,0.364-4.551-0.684c0.246-1.159,0.509-2.402,0.766-3.617    C39.212,54.198,40.964,54.306,43.153,54.789z M32.457,38.351c1.423,0.167,2.704,0.318,4.516,0.532    c-0.113,2.112-0.198,3.718-0.281,5.26c-1.652,0.976-3.036,0.741-4.615,0.036C31.501,42.284,31.844,40.417,32.457,38.351z     M31.31,46.917c1.618,0,2.99,0,4.431,0c0.657,1.82,0.466,3.307-0.391,4.92c-0.643,0.071-1.268,0.24-1.876,0.186    c-0.773-0.068-1.531-0.314-2.555-0.541C31.051,49.934,31.17,48.543,31.31,46.917z M32.126,53.954    c2.998,0.295,3.242,0.748,2.159,3.776c-0.1,0.276-0.386,0.489-0.776,0.965c-1.068-0.065-2.309-0.142-3.851-0.241    c0.197-1.526,0.357-2.76,0.537-4.155C30.919,54.16,31.539,53.897,32.126,53.954z M25.759,38.67    c1.171-0.257,2.421-0.535,3.562-0.791c0.354,0.467,0.715,0.723,0.711,0.973c-0.012,1.466-0.11,2.933-0.195,4.752    C25.383,43.062,25.383,43.062,25.759,38.67z M25.413,44.893c1.323,0.422,2.354,0.751,3.342,1.069    c0.841,1.708,0.305,3.206-0.1,4.67c-1.813,0.475-3.108,0.114-4.256-1.532C24.678,47.937,25.007,46.574,25.413,44.893z     M24.419,51.917c1.311,0.589,2.447,1.097,3.477,1.561c0.413,1.946,0.091,3.474-1.134,5.038c-1.152,0.065-2.426,0.135-3.616,0.202    c-0.224-0.457-0.505-0.753-0.452-0.965C23.156,55.864,23.345,53.884,24.419,51.917z M21.504,60.794c1.468,0,2.874,0,4.15,0    c0.911,1.106,0.465,1.927-0.352,3.074c-1.332-0.099-2.882-0.213-4.669-0.341C20.978,62.439,21.215,61.699,21.504,60.794z"></path></g></g></svg>